<svg viewBox="0 0 32 21" fill="none" xmlns="http://www.w3.org/2000/svg" xmlns:xlink="http://www.w3.org/1999/xlink" x="0" y="0"><path id="Vector_204" d="M29.2941,14.257h-13.6474v4.491c-0.0001,0.248 -0.1002,0.49 -0.2876,0.696c-0.1875,0.205 -0.4539,0.366 -0.7656,0.461c-0.3116,0.094 -0.6546,0.119 -0.9854,0.071c-0.3309,-0.048 -0.6348,-0.168 -0.8734,-0.343l-11.2352,-8.248c-0.3198,-0.234 -0.4995,-0.553 -0.4995,-0.885c0,-0.332 0.1797,-0.6506 0.4995,-0.8854l11.2352,-8.2479c0.2386,-0.1751 0.5425,-0.2944 0.8734,-0.3427c0.3308,-0.0483 0.6738,-0.0235 0.9854,0.0713c0.3117,0.0948 0.5781,0.2553 0.7656,0.4612c0.1874,0.2058 0.2875,0.4479 0.2876,0.6956v4.4909h13.6474c0.4524,0 0.8863,0.1319 1.2062,0.3668c0.32,0.2348 0.4997,0.5534 0.4997,0.8855v5.0097c0,0.332 -0.1797,0.65 -0.4997,0.885c-0.3199,0.235 -0.7538,0.367 -1.2062,0.367z" stroke="#FE9900" stroke-width="2" stroke-linecap="round" stroke-linejoin="round"/></svg>