<svg viewBox="0 0 55.8 55.8" fill="none" xmlns="http://www.w3.org/2000/svg" xmlns:xlink="http://www.w3.org/1999/xlink" x="0" y="0"><defs><mask id="mask125_6578_3234" style="mask-type:luminance" maskUnits="userSpaceOnUse" x="2" y="2" width="54" height="54">
<g id="25f45d62ad">
<path id="Vector_214" d="M2.1411,2.141h53.6591v53.659h-53.6591z" fill="white"/>
</g>
</mask><mask id="mask126_6578_3234" style="mask-type:luminance" maskUnits="userSpaceOnUse" x="2" y="2" width="54" height="54">
<g id="8dbb40ed13">
<path id="Vector_215" d="M28.9706,2.141c-14.817,0 -26.8295,12.013 -26.8295,26.83c0,14.817 12.0125,26.829 26.8295,26.829c14.8171,0 26.8296,-12.012 26.8296,-26.829c0,-14.817 -12.0125,-26.83 -26.8296,-26.83z" fill="white"/>
</g>
</mask><mask id="mask127_6578_3234" style="mask-type:luminance" maskUnits="userSpaceOnUse" x="1" y="1" width="55" height="55">
<g id="85cd9fe278">
<path id="Vector_216" d="M55.8002,1.24h-54.56v54.56h54.56z" fill="white"/>
</g>
</mask><mask id="mask128_6578_3234" style="mask-type:luminance" maskUnits="userSpaceOnUse" x="2" y="2" width="54" height="54">
<g id="fe9dbc30dc">
<path id="Vector_217" d="M2.1411,2.141h53.6591v53.659h-53.6591z" fill="white"/>
</g>
</mask><mask id="mask129_6578_3234" style="mask-type:luminance" maskUnits="userSpaceOnUse" x="2" y="2" width="54" height="54">
<g id="4bdb78add5">
<path id="Vector_218" d="M28.9706,2.141c-14.817,0 -26.8295,12.013 -26.8295,26.83c0,14.817 12.0125,26.829 26.8295,26.829c14.8171,0 26.8296,-12.012 26.8296,-26.829c0,-14.817 -12.0125,-26.83 -26.8296,-26.83z" fill="white"/>
</g>
</mask><mask id="mask130_6578_3234" style="mask-type:luminance" maskUnits="userSpaceOnUse" x="39" y="15" width="17" height="21">
<g id="bdf5a72460">
<path id="Vector_220" d="M39.6802,15.006h16.12v20.954h-16.12z" fill="white"/>
</g>
</mask><mask id="mask131_6578_3234" style="mask-type:luminance" maskUnits="userSpaceOnUse" x="2" y="15" width="18" height="21">
<g id="54c3fd064d">
<path id="Vector_222" d="M2.1411,15.006h17.6991v20.954h-17.6991z" fill="white"/>
</g>
</mask><mask id="mask132_6578_3234" style="mask-type:luminance" maskUnits="userSpaceOnUse" x="21" y="42" width="9" height="9">
<g id="83f5ce573a">
<path id="Vector_230" d="M21.0801,42.16h8.68v8.186h-8.68z" fill="white"/>
</g>
</mask><mask id="mask133_6578_3234" style="mask-type:luminance" maskUnits="userSpaceOnUse" x="22" y="11" width="14" height="11">
<g id="25e97fe99a">
<path id="Vector_236" d="M22.3198,11.16h13.64v9.92h-13.64z" fill="white"/>
</g>
</mask><mask id="mask134_6578_3234" style="mask-type:luminance" maskUnits="userSpaceOnUse" x="20" y="7" width="18" height="18">
<g id="beb240c256">
<path id="Vector_237" d="M20.3242,15.752l8.743,-8.356l8.3506,8.739l-8.7381,8.355z" fill="white"/>
</g>
</mask><mask id="mask135_6578_3234" style="mask-type:luminance" maskUnits="userSpaceOnUse" x="20" y="7" width="18" height="18">
<g id="1b19d061ed">
<path id="Vector_238" d="M20.3242,15.752l8.743,-8.356l8.3506,8.739l-8.7381,8.355z" fill="white"/>
</g>
</mask><mask id="mask136_6578_3234" style="mask-type:luminance" maskUnits="userSpaceOnUse" x="-6" y="-6" width="68" height="68">
<g id="Group_260">
<g id="Group_261">
<path id="Vector_240" d="M61.3799,-5.58h-66.96v66.96h66.96z" fill="black" fill-opacity="0.3"/>
</g>
</g>
</mask><mask id="mask137_6578_3234" style="mask-type:luminance" maskUnits="userSpaceOnUse" x="24" y="48" width="14" height="8">
<g id="8f33299f4d">
<path id="Vector_241" d="M37.1998,48.36h-12.4v7.44h12.4z" fill="white"/>
</g>
</mask><mask id="mask138_6578_3234" style="mask-type:luminance" maskUnits="userSpaceOnUse" x="25" y="49" width="12" height="7">
<g id="3b57ec1f41">
<path id="Vector_242" d="M25.5942,49.401h11.0099v5.953h-11.0099z" fill="white"/>
</g>
</mask><mask id="mask139_6578_3234" style="mask-type:luminance" maskUnits="userSpaceOnUse" x="24" y="48" width="14" height="8">
<g id="dde3212818">
<path id="Vector_243" d="M37.1998,48.36h-12.4v7.44h12.4z" fill="white"/>
</g>
</mask><mask id="mask140_6578_3234" style="mask-type:luminance" maskUnits="userSpaceOnUse" x="26" y="49" width="10" height="7">
<g id="e27d002ff7">
<path id="Vector_244" d="M26.04,49.6h9.92v5.754h-9.92z" fill="white"/>
</g>
</mask><clipPath id="clip2_6578_3234">
<rect width="55.8" height="55.8" fill="white" transform="translate(0, 0)"/>
</clipPath></defs><g id="1000107575 1" clip-path="url(#clip2_6578_3234)">
<g id="Clip path group_126">
<mask id="mask125_6578_3234" style="mask-type:luminance" maskUnits="userSpaceOnUse" x="20" y="486" width="54" height="54">
<g id="25f45d62ad">
<path id="Vector_214" d="M20.1411 486.141H73.8002V539.8H20.1411V486.141Z" fill="white"/>
</g>
</mask>
<g mask="url(#mask125_6578_3234)">
<g id="Group_248">
<g id="Clip path group_127">
<mask id="mask126_6578_3234" style="mask-type:luminance" maskUnits="userSpaceOnUse" x="20" y="486" width="54" height="54">
<g id="8dbb40ed13">
<path id="Vector_215" d="M46.9706 486.141C32.1536 486.141 20.1411 498.154 20.1411 512.971C20.1411 527.788 32.1536 539.8 46.9706 539.8C61.7877 539.8 73.8002 527.788 73.8002 512.971C73.8002 498.154 61.7877 486.141 46.9706 486.141Z" fill="white"/>
</g>
</mask>
<g mask="url(#mask126_6578_3234)">
<g id="Group_249">
<g id="Group_250">
<g id="Clip path group_128">
<mask id="mask127_6578_3234" style="mask-type:luminance" maskUnits="userSpaceOnUse" x="19" y="485" width="55" height="55">
<g id="85cd9fe278">
<path id="Vector_216" d="M73.8002 485.24H19.2402V539.8H73.8002V485.24Z" fill="white"/>
</g>
</mask>
<g mask="url(#mask127_6578_3234)">
<g id="Group_251">
<g id="Clip path group_129">
<mask id="mask128_6578_3234" style="mask-type:luminance" maskUnits="userSpaceOnUse" x="20" y="486" width="54" height="54">
<g id="fe9dbc30dc">
<path id="Vector_217" d="M20.1411 486.141H73.8002V539.8H20.1411V486.141Z" fill="white"/>
</g>
</mask>
<g mask="url(#mask128_6578_3234)">
<g id="Group_252">
<g id="Clip path group_130">
<mask id="mask129_6578_3234" style="mask-type:luminance" maskUnits="userSpaceOnUse" x="20" y="486" width="54" height="54">
<g id="4bdb78add5">
<path id="Vector_218" d="M46.9706 486.141C32.1536 486.141 20.1411 498.154 20.1411 512.971C20.1411 527.788 32.1536 539.8 46.9706 539.8C61.7877 539.8 73.8002 527.788 73.8002 512.971C73.8002 498.154 61.7877 486.141 46.9706 486.141Z" fill="white"/>
</g>
</mask>
<g mask="url(#mask129_6578_3234)">
<g id="Group_253">
<path id="Vector_219" d="M2.1411,2.141h53.6591v53.659h-53.6591z" fill="#122F8A"/>
</g>
</g>
</g>
</g>
</g>
</g>
</g>
</g>
</g>
</g>
</g>
</g>
</g>
</g>
</g>
</g>
<g id="Clip path group_131">
<mask id="mask130_6578_3234" style="mask-type:luminance" maskUnits="userSpaceOnUse" x="57" y="499" width="17" height="21">
<g id="bdf5a72460">
<path id="Vector_220" d="M57.6802 499.006H73.8002V519.96H57.6802V499.006Z" fill="white"/>
</g>
</mask>
<g mask="url(#mask130_6578_3234)">
<g id="Group_254">
<path id="Vector_221" d="M50.4769,35.664c-0.1841,0 -0.3633,-0.019 -0.5474,-0.058c-0.6878,-0.145 -1.2787,-0.552 -1.6662,-1.143l-7.3867,-11.354c-0.7653,-1.167 -0.4796,-2.732 0.6442,-3.56l4.897,-3.604c0.3633,-0.256 0.8671,-0.184 1.1335,0.18c0.2615,0.358 0.184,0.862 -0.1744,1.128l-4.897,3.599c-0.436,0.32 -0.5474,0.925 -0.2519,1.376l7.3915,11.354c0.1454,0.232 0.3779,0.387 0.6443,0.44c0.2664,0.058 0.5376,0.005 0.7653,-0.145l3.3519,-2.209c0.3729,-0.247 0.8718,-0.14 1.1189,0.233c0.247,0.373 0.1404,0.872 -0.2277,1.114l-3.3519,2.213c-0.4359,0.286 -0.9348,0.436 -1.4434,0.436z" fill="#FE9900"/>
</g>
</g>
</g>
<g id="Clip path group_132">
<mask id="mask131_6578_3234" style="mask-type:luminance" maskUnits="userSpaceOnUse" x="20" y="499" width="18" height="21">
<g id="54c3fd064d">
<path id="Vector_222" d="M20.1411 499.006H37.8402V519.96H20.1411V499.006Z" fill="white"/>
</g>
</mask>
<g mask="url(#mask131_6578_3234)">
<g id="Group_255">
<path id="Vector_223" d="M9.3052,34.977c-0.4456,0 -0.9009,-0.117 -1.3126,-0.354l-5.27,-3.027c-0.3875,-0.223 -0.5231,-0.717 -0.3003,-1.105c0.2228,-0.382 0.7168,-0.518 1.1043,-0.295l5.2749,3.027c0.465,0.272 1.0608,0.126 1.3611,-0.324l7.4012,-11.344c0.155,-0.233 0.2035,-0.504 0.1453,-0.77c-0.0532,-0.267 -0.2131,-0.495 -0.4456,-0.645l-5.7931,-3.516c-0.3827,-0.228 -0.5038,-0.727 -0.2761,-1.105c0.2325,-0.382 0.7314,-0.508 1.1141,-0.276l5.8125,3.531c0.6151,0.393 1.022,0.984 1.1721,1.676c0.1454,0.688 0.0146,1.395 -0.3729,1.986l-7.4061,11.344c-0.5038,0.77 -1.3466,1.197 -2.2088,1.197z" fill="#FE9900"/>
</g>
</g>
</g>
<path id="Vector_224" d="M44.8821,37.699c-0.1695,0 -0.339,-0.053 -0.4795,-0.16l-12.4194,-9.218l-3.5069,0.146c-2.1215,2.877 -4.989,4.194 -6.7667,4.01c-0.9154,-0.096 -1.5936,-0.561 -1.9036,-1.317c-0.5667,-1.361 0.2132,-3.429 2.2669,-5.977c0.1066,-0.131 0.2083,-0.267 0.31,-0.402c0.4747,-0.635 1.0075,-1.357 1.9763,-1.623l7.9631,-2.175c0.7847,-0.218 1.6323,-0.15 2.3879,0.184c3.1776,1.419 6.6408,0.717 6.6747,0.712c0.4408,-0.092 0.8671,0.189 0.9543,0.625c0.092,0.436 -0.1889,0.862 -0.6249,0.954c-0.1598,0.034 -4.0155,0.814 -7.6628,-0.813c-0.4166,-0.184 -0.8816,-0.223 -1.303,-0.107l-7.9631,2.18c-0.4117,0.111 -0.6878,0.46 -1.1044,1.027c-0.1162,0.15 -0.2276,0.305 -0.3487,0.455c-1.8697,2.32 -2.2669,3.788 -2.0344,4.34c0.0291,0.073 0.1163,0.281 0.5764,0.329c1.177,0.112 3.6377,-0.93 5.5122,-3.652c0.1453,-0.208 0.3778,-0.339 0.6297,-0.349l4.185,-0.174c0.1889,-0.005 0.3681,0.048 0.5183,0.16l12.1772,9.038l3.5746,-2.528c0.3682,-0.257 0.8719,-0.17 1.1286,0.194c0.2568,0.363 0.1696,0.867 -0.1937,1.128l-4.0591,2.863c-0.1404,0.097 -0.3003,0.15 -0.465,0.15z" fill="#FE9900"/>
<path id="Vector_225" d="M23.8508,25.134c-0.0581,0 -0.1211,-0.009 -0.1792,-0.024c-0.4408,-0.102 -4.3642,-1.032 -5.9772,-2.519c-0.3294,-0.305 -0.3487,-0.818 -0.0436,-1.143c0.3003,-0.329 0.8138,-0.348 1.1383,-0.043c1.0995,1.017 4.1559,1.884 5.2409,2.131c0.436,0.102 0.7072,0.533 0.6104,0.969c-0.0872,0.373 -0.4215,0.629 -0.7896,0.629z" fill="#FE9900"/>
<path id="Vector_226" d="M13.2427,37.699c-0.2277,0 -0.4553,-0.097 -0.6152,-0.286l-2.7125,-3.201c-0.2906,-0.34 -0.247,-0.853 0.092,-1.139c0.3391,-0.29 0.8477,-0.247 1.1383,0.092l2.7174,3.202c0.2858,0.339 0.2422,0.852 -0.0969,1.138c-0.1502,0.131 -0.3342,0.194 -0.5231,0.194z" fill="#FE9900"/>
<path id="Vector_227" d="M16.735,36.096c-0.3536,0 -0.6975,0.145 -0.9445,0.431l-2.0828,2.368c-0.2228,0.252 -0.3294,0.582 -0.31,0.911c0.0242,0.334 0.1743,0.644 0.4262,0.867c0.2519,0.223 0.5764,0.329 0.9106,0.305c0.3343,-0.019 0.6394,-0.169 0.8622,-0.426l2.0828,-2.369c0.4553,-0.523 0.4021,-1.317 -0.1162,-1.773c-0.2374,-0.208 -0.5328,-0.314 -0.8283,-0.314zM14.6473,42.596c-0.6975,0 -1.361,-0.247 -1.889,-0.712c-0.5764,-0.504 -0.9252,-1.206 -0.9736,-1.972c-0.0484,-0.765 0.2034,-1.501 0.7072,-2.078l2.0828,-2.378c1.0462,-1.187 2.8627,-1.303 4.0542,-0.261c0.5764,0.503 0.9203,1.206 0.9688,1.971c0.0532,0.765 -0.1986,1.502 -0.7072,2.083l-2.078,2.368c-0.5037,0.577 -1.2061,0.926 -1.9714,0.974c-0.0678,0.005 -0.1308,0.005 -0.1938,0.005z" fill="#FE9900"/>
<path id="Vector_228" d="M20.9396,37.82c-0.029,0 -0.0581,0 -0.0872,0c-0.3342,0.024 -0.6393,0.175 -0.8621,0.426l-3.3568,3.832c-0.2228,0.252 -0.3293,0.571 -0.31,0.906c0.0194,0.339 0.1744,0.644 0.4214,0.862c0.2568,0.223 0.5861,0.329 0.9155,0.315c0.3342,-0.025 0.6394,-0.175 0.8622,-0.427l3.3567,-3.831c0.2228,-0.252 0.3342,-0.576 0.31,-0.911c-0.0194,-0.334 -0.1695,-0.639 -0.4214,-0.862c-0.2325,-0.203 -0.5231,-0.31 -0.8283,-0.31zM17.5732,45.774c-0.6684,0 -1.3465,-0.233 -1.889,-0.712c-0.5813,-0.504 -0.9252,-1.206 -0.9736,-1.972c-0.0485,-0.765 0.1986,-1.506 0.7072,-2.083l3.3567,-3.826c0.5086,-0.577 1.2109,-0.925 1.9762,-0.969c0.7702,-0.053 1.5016,0.199 2.078,0.702c0.5812,0.509 0.9251,1.207 0.9736,1.972c0.0533,0.77 -0.1986,1.506 -0.7072,2.083l-3.3567,3.831c-0.5667,0.644 -1.366,0.974 -2.1652,0.974z" fill="#FE9900"/>
<path id="Vector_229" d="M23.8263,40.678c-0.0242,0 -0.0533,0 -0.0824,0.004c-0.3342,0.02 -0.6442,0.17 -0.8622,0.427l-3.0564,3.482c-0.2228,0.247 -0.3293,0.572 -0.31,0.906c0.0243,0.334 0.1744,0.644 0.4263,0.862c0.2519,0.223 0.5812,0.335 0.9106,0.31c0.3342,-0.019 0.6394,-0.174 0.8622,-0.426l3.0564,-3.478c0.2228,-0.252 0.3342,-0.576 0.31,-0.91c-0.0242,-0.335 -0.1744,-0.645 -0.4262,-0.867c-0.2325,-0.204 -0.5232,-0.31 -0.8283,-0.31zM20.765,48.287c-0.6975,0 -1.3611,-0.247 -1.889,-0.712c-0.5764,-0.508 -0.9252,-1.206 -0.9736,-1.971c-0.0485,-0.766 0.2034,-1.507 0.7072,-2.083l3.0564,-3.478c1.0462,-1.191 2.8626,-1.313 4.0542,-0.266c1.1915,1.041 1.3126,2.862 0.2664,4.049l-3.0564,3.483c-0.5086,0.576 -1.2061,0.925 -1.9714,0.973c-0.0678,0.005 -0.1308,0.01 -0.1938,0.01" fill="#FE9900"/>
<g id="Clip path group_133">
<mask id="mask132_6578_3234" style="mask-type:luminance" maskUnits="userSpaceOnUse" x="39" y="526" width="9" height="9">
<g id="83f5ce573a">
<path id="Vector_230" d="M39.0801 526.16H47.7601V534.346H39.0801V526.16Z" fill="white"/>
</g>
</mask>
<g mask="url(#mask132_6578_3234)">
<g id="Group_256">
<path id="Vector_231" d="M26.2095,44.078c-0.3439,0 -0.6927,0.141 -0.9446,0.427l-1.7582,2.005c-0.4554,0.523 -0.4069,1.317 0.1162,1.778c0.5183,0.455 1.3127,0.402 1.7728,-0.117l1.7631,-2.01c0.218,-0.252 0.3294,-0.576 0.3052,-0.91c-0.0194,-0.335 -0.1695,-0.64 -0.4214,-0.863c-0.2422,-0.208 -0.5328,-0.31 -0.8331,-0.31zM24.4512,50.211c-0.6733,0 -1.3514,-0.233 -1.8939,-0.708c-1.1916,-1.046 -1.3127,-2.867 -0.2664,-4.059l1.7631,-2.005c0.5037,-0.576 1.2061,-0.92 1.9714,-0.974c0.7702,-0.048 1.5064,0.204 2.078,0.708c0.5812,0.508 0.9251,1.21 0.9736,1.971c0.0532,0.765 -0.1986,1.506 -0.7072,2.083l-1.7583,2.01c-0.5667,0.644 -1.3611,0.974 -2.1603,0.974z" fill="#FE9900"/>
</g>
</g>
</g>
<path id="Vector_232" d="M42.9109,41.787c-0.6151,0 -1.2206,-0.174 -1.7534,-0.513l-7.4642,-4.718c-0.3827,-0.238 -0.4941,-0.736 -0.2519,-1.114c0.2374,-0.378 0.7363,-0.49 1.1092,-0.252l7.4691,4.718c0.3826,0.242 0.8331,0.319 1.2691,0.218c0.4359,-0.097 0.8089,-0.359 1.051,-0.741c0.4263,-0.674 0.3149,-1.56 -0.2615,-2.112c-0.3294,-0.31 -0.7072,-0.567 -1.1238,-0.751c-0.4068,-0.184 -0.5861,-0.664 -0.4068,-1.071c0.184,-0.406 0.6636,-0.586 1.0704,-0.406c0.5813,0.261 1.1141,0.62 1.5742,1.055c1.1335,1.085 1.3515,2.824 0.5135,4.152c-0.4699,0.741 -1.2013,1.259 -2.0635,1.453c-0.2421,0.053 -0.4892,0.082 -0.7314,0.082z" fill="#FE9900"/>
<path id="Vector_233" d="M40.0092,43.952c-0.6733,0 -1.3562,-0.155 -2.0004,-0.47l-6.1564,-3.037c-0.3972,-0.199 -0.5668,-0.683 -0.3682,-1.08c0.1986,-0.402 0.6782,-0.567 1.085,-0.368l6.1516,3.037c1.3369,0.659 2.945,0.203 3.7394,-1.056c0.2373,-0.378 0.7362,-0.484 1.1092,-0.252c0.3778,0.237 0.494,0.741 0.2519,1.119c-0.8525,1.351 -2.3105,2.107 -3.8121,2.107z" fill="#FE9900"/>
<path id="Vector_234" d="M36.3668,46.117c-0.5086,0 -1.022,-0.106 -1.5064,-0.339l-2.5575,-1.201c-0.4068,-0.189 -0.5764,-0.668 -0.3875,-1.075c0.1889,-0.402 0.6685,-0.577 1.0753,-0.388l2.5575,1.206c0.8816,0.412 1.9375,0.102 2.4607,-0.721l0.6054,-0.959c0.2374,-0.378 0.7363,-0.49 1.1141,-0.252c0.3778,0.237 0.4892,0.736 0.2519,1.114l-0.6103,0.964c-0.6685,1.056 -1.8164,1.651 -3.0032,1.651z" fill="#FE9900"/>
<path id="Vector_235" d="M32.5935,49.13c-0.6781,0 -1.3611,-0.131 -2.0247,-0.402l-3.1145,-1.284c-0.4117,-0.174 -0.6055,-0.644 -0.4359,-1.056c0.1646,-0.411 0.6442,-0.61 1.0559,-0.44l3.1097,1.288c1.4725,0.606 3.1145,0.208 4.0106,-0.954c0.0727,-0.092 0.1356,-0.189 0.1986,-0.286l0.5377,-0.843c0.2373,-0.377 0.7314,-0.489 1.1092,-0.252c0.3778,0.238 0.494,0.737 0.2518,1.115l-0.5328,0.842c-0.092,0.146 -0.184,0.281 -0.2906,0.417c-0.9203,1.201 -2.3686,1.855 -3.875,1.855z" fill="#FE9900"/>
<g id="Clip path group_134">
<mask id="mask133_6578_3234" style="mask-type:luminance" maskUnits="userSpaceOnUse" x="40" y="495" width="14" height="11">
<g id="25e97fe99a">
<path id="Vector_236" d="M40.3198 495.16H53.9598V505.08H40.3198V495.16Z" fill="white"/>
</g>
</mask>
<g mask="url(#mask133_6578_3234)">
<g id="Group_257">
<g id="Clip path group_135">
<mask id="mask134_6578_3234" style="mask-type:luminance" maskUnits="userSpaceOnUse" x="38" y="491" width="18" height="18">
<g id="beb240c256">
<path id="Vector_237" d="M38.3242 499.752L47.0672 491.396L55.4178 500.135L46.6797 508.49L38.3242 499.752Z" fill="white"/>
</g>
</mask>
<g mask="url(#mask134_6578_3234)">
<g id="Group_258">
<g id="Clip path group_136">
<mask id="mask135_6578_3234" style="mask-type:luminance" maskUnits="userSpaceOnUse" x="38" y="491" width="18" height="18">
<g id="1b19d061ed">
<path id="Vector_238" d="M38.3242 499.752L47.0672 491.396L55.4178 500.135L46.6797 508.49L38.3242 499.752Z" fill="white"/>
</g>
</mask>
<g mask="url(#mask135_6578_3234)">
<g id="Group_259">
<path id="Vector_239" d="M29.0139,12.042c-0.3342,-0.189 -0.6829,-0.334 -1.0559,-0.431c-0.3681,-0.097 -0.7459,-0.146 -1.1286,-0.146c-0.3826,0 -0.7605,0.049 -1.1334,0.15c-0.3682,0.097 -0.7217,0.238 -1.056,0.432c-0.3293,0.188 -0.6345,0.416 -0.9106,0.683c-0.2712,0.271 -0.5086,0.566 -0.7023,0.896c-0.1986,0.329 -0.3488,0.678 -0.4553,1.046c-0.1066,0.368 -0.1647,0.746 -0.1744,1.128c-0.0049,0.383 0.0339,0.761 0.1211,1.134c0.092,0.373 0.2276,0.726 0.4068,1.066c0.1841,0.339 0.4021,0.644 0.6636,0.925c0.2616,0.281 0.5571,0.523 0.8816,0.726c0.3245,0.204 0.6684,0.364 1.0317,0.48c0.3681,0.116 0.7411,0.184 1.1238,0.198c0.3826,0.02 0.7604,-0.014 1.1383,-0.092c0.3729,-0.082 0.7314,-0.208 1.0753,-0.382c0.3342,0.189 0.6829,0.334 1.0559,0.431c0.3681,0.097 0.7459,0.145 1.1334,0.145c0.3827,0 0.7605,-0.048 1.1286,-0.145c0.373,-0.097 0.7266,-0.242 1.0608,-0.431c0.3294,-0.189 0.6345,-0.417 0.9106,-0.688c0.2713,-0.267 0.5086,-0.567 0.7072,-0.896c0.1938,-0.33 0.3488,-0.678 0.4553,-1.046c0.1066,-0.369 0.1599,-0.746 0.1696,-1.129c0.0097,-0.383 -0.0291,-0.761 -0.1211,-1.133c-0.0872,-0.373 -0.2228,-0.732 -0.4069,-1.066c-0.1792,-0.339 -0.402,-0.649 -0.6636,-0.93c-0.2616,-0.281 -0.557,-0.523 -0.8816,-0.727c-0.3245,-0.203 -0.6684,-0.363 -1.0365,-0.479c-0.3633,-0.116 -0.7411,-0.179 -1.1238,-0.199c-0.3826,-0.019 -0.7604,0.015 -1.1382,0.097c-0.373,0.078 -0.7315,0.208 -1.0754,0.383zM30.5349,13.451c0.3826,-0.072 0.7604,-0.058 1.1383,0.039c0.3778,0.102 0.712,0.276 1.0075,0.528c0.3003,0.252 0.5279,0.557 0.6878,0.911c0.1598,0.358 0.2373,0.731 0.2276,1.119c-0.0097,0.387 -0.1017,0.755 -0.2761,1.104c-0.1743,0.349 -0.4165,0.644 -0.7265,0.881c-0.3052,0.238 -0.6491,0.398 -1.0317,0.48c-0.3779,0.087 -0.7605,0.082 -1.1383,-0.005c0.2664,-0.368 0.4747,-0.765 0.62,-1.191c0.1453,-0.427 0.2228,-0.867 0.2325,-1.323c0.0097,-0.45 -0.0485,-0.891 -0.1744,-1.327c-0.1308,-0.436 -0.3148,-0.838 -0.5667,-1.216zM24.0249,18.581c-0.3391,-0.359 -0.6055,-0.766 -0.7896,-1.221c-0.184,-0.46 -0.2809,-0.935 -0.2857,-1.429c-0.0049,-0.494 0.0823,-0.973 0.2615,-1.433c0.1744,-0.461 0.4311,-0.872 0.7702,-1.236c0.3342,-0.363 0.7217,-0.649 1.1673,-0.867c0.4457,-0.213 0.9155,-0.339 1.4096,-0.373c0.4892,-0.034 0.9736,0.025 1.4434,0.17c0.4747,0.15 0.9009,0.383 1.2836,0.693c0.3972,0.319 0.7169,0.707 0.9591,1.152c0.247,0.451 0.3971,0.93 0.4504,1.434c0.0581,0.509 0.0146,1.008 -0.1259,1.497c-0.1453,0.494 -0.373,0.94 -0.6927,1.337c-0.2228,-0.112 -0.4262,-0.252 -0.6103,-0.422c0.1599,-0.193 0.2906,-0.402 0.3972,-0.625c0.1114,-0.222 0.1889,-0.46 0.2422,-0.702c0.0533,-0.242 0.0775,-0.489 0.0678,-0.736c-0.0048,-0.252 -0.0388,-0.494 -0.1017,-0.736c-0.0678,-0.238 -0.1599,-0.47 -0.2761,-0.688c-0.1211,-0.218 -0.2616,-0.422 -0.4263,-0.606c-0.1695,-0.184 -0.3536,-0.344 -0.557,-0.484c-0.2083,-0.145 -0.4262,-0.257 -0.6587,-0.349c-0.2325,-0.087 -0.4699,-0.145 -0.7169,-0.179c-0.247,-0.029 -0.4941,-0.034 -0.7411,-0.005c-0.247,0.024 -0.4892,0.082 -0.7217,0.165c-0.2374,0.082 -0.4553,0.194 -0.6636,0.329c-0.2083,0.136 -0.3972,0.296 -0.5667,0.48c-0.1744,0.179 -0.3197,0.378 -0.4408,0.596c-0.126,0.213 -0.218,0.44 -0.2906,0.682c-0.0679,0.238 -0.1066,0.48 -0.1211,0.732c-0.0097,0.247 0.0096,0.494 0.0581,0.736c0.0436,0.247 0.1211,0.48 0.2228,0.707c0.1066,0.228 0.2325,0.436 0.3875,0.635c0.1502,0.194 0.3245,0.368 0.5183,0.523c0.1986,0.155 0.4069,0.286 0.6345,0.387c0.2228,0.107 0.4602,0.185 0.7024,0.233c0.2421,0.048 0.4892,0.068 0.741,0.058c0.2471,-0.01 0.4893,-0.048 0.7315,-0.116c0.1743,0.203 0.3729,0.387 0.586,0.552c0.0097,0.01 0.0194,0.019 0.0243,0.029c-0.7363,0.296 -1.4968,0.363 -2.2766,0.194c-0.7798,-0.165 -1.4434,-0.538 -1.9956,-1.114zM28.888,17.452c-0.3148,-0.46 -0.465,-0.964 -0.4505,-1.521c0.0146,-0.557 0.1889,-1.051 0.528,-1.492c0.3148,0.456 0.465,0.964 0.4505,1.516c-0.0146,0.558 -0.1889,1.056 -0.528,1.497zM27.3186,18.44c-0.3826,0.073 -0.7653,0.058 -1.1383,-0.038c-0.3778,-0.102 -0.7168,-0.277 -1.0171,-0.528c-0.2955,-0.247 -0.528,-0.553 -0.6879,-0.906c-0.1598,-0.359 -0.2373,-0.732 -0.2325,-1.119c0.0097,-0.392 0.1018,-0.761 0.2761,-1.109c0.1744,-0.349 0.4166,-0.645 0.7218,-0.882c0.31,-0.242 0.6539,-0.402 1.0317,-0.484c0.3826,-0.087 0.7653,-0.083 1.1431,0.005c-0.2616,0.368 -0.4602,0.765 -0.6006,1.196c-0.1453,0.426 -0.218,0.867 -0.2277,1.318c-0.0097,0.45 0.0485,0.896 0.1744,1.327c0.1259,0.436 0.31,0.843 0.557,1.22zM33.7027,18.799c-0.3536,0.339 -0.7605,0.6 -1.2158,0.784c-0.4601,0.185 -0.93,0.281 -1.4241,0.286c-0.4892,0.005 -0.9687,-0.082 -1.4289,-0.256c-0.4553,-0.175 -0.867,-0.427 -1.2303,-0.761c-0.3681,-0.329 -0.6539,-0.717 -0.8718,-1.158c-0.218,-0.44 -0.3488,-0.905 -0.3875,-1.395c-0.0388,-0.489 0.0096,-0.973 0.1501,-1.443c0.1405,-0.47 0.3633,-0.901 0.6684,-1.288c0.2277,0.116 0.436,0.261 0.6249,0.435c-0.155,0.189 -0.2858,0.398 -0.3924,0.616c-0.1114,0.222 -0.1889,0.45 -0.2421,0.692c-0.0533,0.242 -0.0775,0.485 -0.0727,0.727c0,0.247 0.0339,0.489 0.092,0.726c0.063,0.238 0.1502,0.465 0.2664,0.683c0.1114,0.218 0.2471,0.422 0.4118,0.606c0.1598,0.189 0.339,0.349 0.5425,0.494c0.1985,0.14 0.4117,0.261 0.6393,0.353l0.0097,0.005c0.2325,0.092 0.4699,0.16 0.7169,0.194c0.247,0.039 0.4941,0.044 0.7459,0.019c0.2471,-0.019 0.4893,-0.072 0.7266,-0.155c0.2373,-0.077 0.4602,-0.188 0.6733,-0.319c0.2083,-0.136 0.402,-0.291 0.5764,-0.475c0.1744,-0.179 0.3245,-0.378 0.4505,-0.591c0.1259,-0.218 0.2228,-0.445 0.2954,-0.683c0.0727,-0.242 0.1163,-0.484 0.126,-0.736c0.0145,-0.247 0,-0.494 -0.0485,-0.741c-0.0436,-0.247 -0.1162,-0.485 -0.2179,-0.712c-0.1018,-0.228 -0.2325,-0.441 -0.3827,-0.64c-0.155,-0.193 -0.3294,-0.373 -0.5231,-0.528c-0.1938,-0.155 -0.4069,-0.285 -0.6346,-0.392c-0.2228,-0.106 -0.4601,-0.184 -0.7071,-0.237c-0.2422,-0.049 -0.4893,-0.068 -0.7411,-0.058c-0.2471,0.009 -0.4941,0.048 -0.7363,0.116c-0.1792,-0.213 -0.3827,-0.402 -0.6055,-0.572c0.4214,-0.169 0.8574,-0.261 1.3079,-0.281c0.4504,-0.019 0.8912,0.039 1.3223,0.175c0.4311,0.135 0.8283,0.344 1.1867,0.615c0.3585,0.276 0.6636,0.601 0.9058,0.978c0.247,0.383 0.4214,0.79 0.5231,1.231c0.1017,0.44 0.126,0.886 0.0727,1.332c-0.0533,0.45 -0.1792,0.876 -0.3827,1.283c-0.1986,0.402 -0.465,0.761 -0.7895,1.071z" fill="#232526"/>
</g>
</g>
</g>
</g>
</g>
</g>
</g>
</g>
</g>
<g id="Mask group">
<mask id="mask136_6578_3234" style="mask-type:luminance" maskUnits="userSpaceOnUse" x="12" y="478" width="68" height="68">
<g id="Group_260">
<g id="Group_261">
<path id="Vector_240" d="M79.3799 478.42H12.4199V545.38H79.3799V478.42Z" fill="black" fill-opacity="0.3"/>
</g>
</g>
</mask>
<g mask="url(#mask136_6578_3234)">
<g id="Group_262">
<g id="Group_263">
<g id="Clip path group_137">
<mask id="mask137_6578_3234" style="mask-type:luminance" maskUnits="userSpaceOnUse" x="42" y="532" width="14" height="8">
<g id="8f33299f4d">
<path id="Vector_241" d="M55.1998 532.36H42.7998V539.8H55.1998V532.36Z" fill="white"/>
</g>
</mask>
<g mask="url(#mask137_6578_3234)">
<g id="Group_264">
<g id="Clip path group_138">
<mask id="mask138_6578_3234" style="mask-type:luminance" maskUnits="userSpaceOnUse" x="43" y="533" width="12" height="7">
<g id="3b57ec1f41">
<path id="Vector_242" d="M43.5942 533.401H54.6041V539.354H43.5942V533.401Z" fill="white"/>
</g>
</mask>
<g mask="url(#mask138_6578_3234)">
<g id="Group_265">
<g id="Group_266">
<g id="Clip path group_139">
<mask id="mask139_6578_3234" style="mask-type:luminance" maskUnits="userSpaceOnUse" x="42" y="532" width="14" height="8">
<g id="dde3212818">
<path id="Vector_243" d="M55.1998 532.36H42.7998V539.8H55.1998V532.36Z" fill="white"/>
</g>
</mask>
<g mask="url(#mask139_6578_3234)">
<g id="Group_267">
<g id="Clip path group_140">
<mask id="mask140_6578_3234" style="mask-type:luminance" maskUnits="userSpaceOnUse" x="44" y="533" width="10" height="7">
<g id="e27d002ff7">
<path id="Vector_244" d="M44.04 533.6H53.96V539.354H44.04V533.6Z" fill="white"/>
</g>
</mask>
<g mask="url(#mask140_6578_3234)">
<g id="Group_268">
<g id="Group_269">
<g id="Group_270">
<g id="Group_271">
<path id="Vector_245" d="M26.8757,53.968c-0.2228,0 -0.3972,-0.049 -0.5231,-0.155c-0.1163,-0.117 -0.1744,-0.281 -0.1744,-0.504c0,-0.126 0.0242,-0.237 0.0775,-0.329c0.063,-0.088 0.1453,-0.16 0.2519,-0.214c0.1162,-0.062 0.2712,-0.106 0.465,-0.135c0.155,-0.024 0.2712,-0.058 0.3487,-0.097c0.0872,-0.039 0.1454,-0.078 0.1744,-0.116c0.0388,-0.039 0.0581,-0.087 0.0581,-0.155c0,-0.102 -0.0387,-0.179 -0.1162,-0.233c-0.0678,-0.048 -0.1744,-0.077 -0.3294,-0.077c-0.1453,0 -0.2664,0.034 -0.3681,0.097c-0.1066,0.053 -0.2034,0.13 -0.2906,0.232h-0.0388l-0.155,-0.232c0.0872,-0.117 0.2035,-0.204 0.3488,-0.272c0.155,-0.077 0.3197,-0.116 0.5037,-0.116c0.2567,0 0.4505,0.058 0.5813,0.174c0.1259,0.117 0.1937,0.281 0.1937,0.485v1.162c0,0.131 0.0485,0.194 0.155,0.194c0.0242,0 0.0581,-0.005 0.0969,-0.019h0.0194l0.0387,0.232c-0.029,0.015 -0.0581,0.029 -0.0969,0.039c-0.0387,0.01 -0.0775,0.019 -0.1162,0.019c-0.1163,0 -0.2083,-0.024 -0.2713,-0.077c-0.0678,-0.049 -0.1065,-0.136 -0.1162,-0.252h-0.0581c-0.0533,0.116 -0.1357,0.208 -0.2519,0.271c-0.1066,0.049 -0.2422,0.078 -0.4069,0.078zM26.9532,53.716c0.126,0 0.2374,-0.024 0.3294,-0.078c0.0872,-0.063 0.155,-0.145 0.1937,-0.252c0.0485,-0.101 0.0775,-0.222 0.0775,-0.368v-0.271l-0.0387,-0.019c-0.0533,0.038 -0.1163,0.072 -0.1938,0.097c-0.0678,0.029 -0.1646,0.048 -0.2906,0.058c-0.1308,0.014 -0.2325,0.038 -0.31,0.077c-0.0678,0.039 -0.1162,0.092 -0.155,0.155c-0.029,0.054 -0.0387,0.116 -0.0387,0.194c0,0.131 0.0387,0.232 0.1162,0.31c0.0775,0.068 0.1792,0.097 0.31,0.097z" fill="black"/>
</g>
</g>
<g id="Group_272">
<g id="Group_273">
<path id="Vector_246" d="M28.6484,54.82v-3.119h0.3294v0.329l0.0388,0.02c0.1647,-0.257 0.4117,-0.388 0.7362,-0.388c0.1792,0 0.3342,0.049 0.465,0.136c0.1405,0.077 0.2519,0.208 0.3294,0.387c0.0775,0.17 0.1162,0.383 0.1162,0.64c0,0.247 -0.0387,0.46 -0.1162,0.639c-0.0775,0.17 -0.1889,0.3 -0.3294,0.387c-0.1453,0.078 -0.31,0.117 -0.5037,0.117c-0.1453,0 -0.2713,-0.029 -0.3875,-0.078c-0.1163,-0.048 -0.2228,-0.135 -0.31,-0.252h-0.0388v1.182zM29.6559,53.677c0.4505,0 0.6782,-0.281 0.6782,-0.852c0,-0.582 -0.2277,-0.872 -0.6782,-0.872c-0.1453,0 -0.2664,0.034 -0.3681,0.097c-0.092,0.067 -0.1695,0.164 -0.2325,0.29c-0.0533,0.131 -0.0775,0.291 -0.0775,0.485c0,0.193 0.0242,0.358 0.0775,0.484c0.063,0.131 0.1405,0.228 0.2325,0.291c0.1017,0.053 0.2228,0.077 0.3681,0.077z" fill="black"/>
</g>
</g>
<g id="Group_274">
<g id="Group_275">
<path id="Vector_247" d="M32.3814,53.968c-0.1695,0 -0.31,-0.034 -0.4263,-0.097c-0.1162,-0.063 -0.2131,-0.145 -0.2906,-0.252l-0.0387,0.019v0.291h-0.3294v-3.119h0.3294v1.22l0.0387,0.02c0.1647,-0.257 0.4117,-0.388 0.7363,-0.388c0.1792,0 0.339,0.049 0.4843,0.136c0.1405,0.077 0.2422,0.208 0.31,0.387c0.0775,0.17 0.1163,0.383 0.1163,0.64c0,0.247 -0.0388,0.46 -0.1163,0.639c-0.0775,0.169 -0.1889,0.3 -0.3293,0.387c-0.1454,0.078 -0.3052,0.117 -0.4844,0.117zM32.3039,53.677c0.4505,0 0.6781,-0.281 0.6781,-0.852c0,-0.296 -0.0581,-0.514 -0.1744,-0.659c-0.1162,-0.141 -0.2857,-0.213 -0.5037,-0.213c-0.2083,0 -0.3778,0.072 -0.5038,0.213c-0.1162,0.145 -0.1743,0.363 -0.1743,0.659c0,0.285 0.0581,0.498 0.1743,0.639c0.126,0.145 0.2955,0.213 0.5038,0.213z" fill="black"/>
</g>
</g>
<g id="Group_276">
<g id="Group_277">
<path id="Vector_248" d="M34.8355,53.968c-0.1938,0 -0.3682,-0.044 -0.5232,-0.136c-0.155,-0.087 -0.2809,-0.218 -0.3681,-0.387c-0.092,-0.18 -0.1356,-0.388 -0.1356,-0.62c0,-0.243 0.0436,-0.451 0.1356,-0.62c0.0872,-0.18 0.2131,-0.315 0.3681,-0.407c0.155,-0.087 0.3294,-0.136 0.5232,-0.136c0.2325,0 0.4165,0.049 0.5618,0.136c0.1405,0.092 0.2374,0.208 0.2907,0.348l-0.2132,0.175h-0.0387c-0.0678,-0.126 -0.1502,-0.218 -0.2519,-0.271c-0.092,-0.063 -0.2083,-0.097 -0.3487,-0.097c-0.1453,0 -0.2664,0.034 -0.3682,0.097c-0.1065,0.067 -0.1889,0.164 -0.2518,0.29c-0.0533,0.131 -0.0775,0.291 -0.0775,0.485c0,0.184 0.0242,0.339 0.0775,0.465c0.0629,0.13 0.1453,0.227 0.2518,0.29c0.1018,0.068 0.2229,0.097 0.3682,0.097c0.155,0 0.2761,-0.029 0.3681,-0.097c0.1017,-0.077 0.1841,-0.184 0.2519,-0.329h0.0387l0.2131,0.116c-0.0532,0.194 -0.155,0.344 -0.31,0.446c-0.1453,0.106 -0.3293,0.155 -0.5618,0.155z" fill="black"/>
</g>
</g>
</g>
</g>
</g>
</g>
</g>
</g>
</g>
</g>
</g>
</g>
</g>
</g>
</g>
</g>
</g>
</g>
</g>
</g>
</g></svg>