<svg viewBox="0 0 80 80" fill="none" xmlns="http://www.w3.org/2000/svg" xmlns:xlink="http://www.w3.org/1999/xlink" x="0" y="0"><defs><mask id="mask103_6578_3234" style="mask-type:luminance" maskUnits="userSpaceOnUse" x="13" y="16" width="57" height="56">
<g id="172a400ab7">
<path id="Vector_155" d="M13.4307,16.201h55.8055v55.799h-55.8055z" fill="white"/>
</g>
</mask><mask id="mask104_6578_3234" style="mask-type:luminance" maskUnits="userSpaceOnUse" x="13" y="16" width="57" height="56">
<g id="9f40bf217e">
<path id="Vector_156" d="M41.3334,16.201c-15.4097,0 -27.9027,12.493 -27.9027,27.896c0,15.41 12.493,27.903 27.9027,27.903c15.4098,0 27.9028,-12.493 27.9028,-27.903c0,-15.403 -12.493,-27.896 -27.9028,-27.896z" fill="white"/>
</g>
</mask><mask id="mask105_6578_3234" style="mask-type:luminance" maskUnits="userSpaceOnUse" x="12" y="16" width="58" height="57">
<g id="f31b15af39">
<path id="Vector_157" d="M69.3332,16h-56.8889v56.889h56.8889z" fill="white"/>
</g>
</mask><mask id="mask106_6578_3234" style="mask-type:luminance" maskUnits="userSpaceOnUse" x="13" y="16" width="57" height="56">
<g id="ba950391ac">
<path id="Vector_158" d="M13.4307,16.201h55.8055v55.799h-55.8055z" fill="white"/>
</g>
</mask><mask id="mask107_6578_3234" style="mask-type:luminance" maskUnits="userSpaceOnUse" x="13" y="16" width="57" height="56">
<g id="f16af29f61">
<path id="Vector_159" d="M41.3334,16.201c-15.4097,0 -27.9027,12.493 -27.9027,27.896c0,15.41 12.493,27.903 27.9027,27.903c15.4098,0 27.9028,-12.493 27.9028,-27.903c0,-15.403 -12.493,-27.896 -27.9028,-27.896z" fill="white"/>
</g>
</mask><mask id="mask108_6578_3234" style="mask-type:luminance" maskUnits="userSpaceOnUse" x="23" y="55" width="6" height="7">
<g id="ab8b25dea7">
<path id="Vector_161" d="M23.0557,55.111h5.3889v6.153h-5.3889z" fill="white"/>
</g>
</mask><mask id="mask109_6578_3234" style="mask-type:luminance" maskUnits="userSpaceOnUse" x="30" y="51" width="6" height="11">
<g id="38f2594ed5">
<path id="Vector_163" d="M30.2222,51.556h5.3333v9.708h-5.3333z" fill="white"/>
</g>
</mask><mask id="mask110_6578_3234" style="mask-type:luminance" maskUnits="userSpaceOnUse" x="39" y="48" width="6" height="14">
<g id="01079b5f68">
<path id="Vector_165" d="M39.1113,48h5.3334v13.264h-5.3334z" fill="white"/>
</g>
</mask><mask id="mask111_6578_3234" style="mask-type:luminance" maskUnits="userSpaceOnUse" x="46" y="46" width="6" height="16">
<g id="7e01d4a4a8">
<path id="Vector_167" d="M46.2222,46.222h5.3333v15.042h-5.3333z" fill="white"/>
</g>
</mask><mask id="mask112_6578_3234" style="mask-type:luminance" maskUnits="userSpaceOnUse" x="55" y="40" width="5" height="22">
<g id="d56521e4b6">
<path id="Vector_169" d="M55.1113,40.889h3.9445v20.375h-3.9445z" fill="white"/>
</g>
</mask><mask id="mask113_6578_3234" style="mask-type:luminance" maskUnits="userSpaceOnUse" x="30" y="24" width="13" height="14">
<g id="c03e33bbb4">
<path id="Vector_172" d="M42.6666,24.889h-12.4444v12.444h12.4444z" fill="white"/>
</g>
</mask><mask id="mask114_6578_3234" style="mask-type:luminance" maskUnits="userSpaceOnUse" x="32" y="25" width="9" height="12">
<g id="c1644e1736">
<path id="Vector_173" d="M32,25.597h8.8889v11.097h-8.8889z" fill="white"/>
</g>
</mask><mask id="mask115_6578_3234" style="mask-type:luminance" maskUnits="userSpaceOnUse" x="19" y="26" width="22" height="14">
<g id="89e54d6d02">
<path id="Vector_178" d="M40.889,26.667h-21.3333v12.444h21.3333z" fill="white"/>
</g>
</mask><mask id="mask116_6578_3234" style="mask-type:luminance" maskUnits="userSpaceOnUse" x="20" y="33" width="4" height="5">
<g id="b38f32495b">
<path id="Vector_181" d="M20.0557,33.777h3.0555v3.556h-3.0555z" fill="white"/>
</g>
</mask><mask id="mask117_6578_3234" style="mask-type:luminance" maskUnits="userSpaceOnUse" x="37" y="33" width="4" height="5">
<g id="6b6b346470">
<path id="Vector_190" d="M37.3335,33.777h3.2014v3.556h-3.2014z" fill="white"/>
</g>
</mask><mask id="mask118_6578_3234" style="mask-type:luminance" maskUnits="userSpaceOnUse" x="49" y="48" width="8" height="13">
<g id="ea214480fe">
<path id="Vector_192" d="M56.8889,48h-7.1111v12.444h7.1111z" fill="white"/>
</g>
</mask><mask id="mask119_6578_3234" style="mask-type:luminance" maskUnits="userSpaceOnUse" x="51" y="49" width="5" height="10">
<g id="59ec69e732">
<path id="Vector_193" d="M51.5557,49.069h3.5555v9.813h-3.5555z" fill="white"/>
</g>
</mask></defs><g id="company 1">
<g id="Clip path group_104">
<mask id="mask103_6578_3234" style="mask-type:luminance" maskUnits="userSpaceOnUse" x="19" y="156" width="57" height="56">
<g id="172a400ab7">
<path id="Vector_155" d="M19.4307 156.201H75.2362V212H19.4307V156.201Z" fill="white"/>
</g>
</mask>
<g mask="url(#mask103_6578_3234)">
<g id="Group_170">
<g id="Clip path group_105">
<mask id="mask104_6578_3234" style="mask-type:luminance" maskUnits="userSpaceOnUse" x="19" y="156" width="57" height="56">
<g id="9f40bf217e">
<path id="Vector_156" d="M47.3334 156.201C31.9237 156.201 19.4307 168.694 19.4307 184.097C19.4307 199.507 31.9237 212 47.3334 212C62.7432 212 75.2362 199.507 75.2362 184.097C75.2362 168.694 62.7432 156.201 47.3334 156.201Z" fill="white"/>
</g>
</mask>
<g mask="url(#mask104_6578_3234)">
<g id="Group_171">
<g id="Group_172">
<g id="Clip path group_106">
<mask id="mask105_6578_3234" style="mask-type:luminance" maskUnits="userSpaceOnUse" x="18" y="156" width="58" height="57">
<g id="f31b15af39">
<path id="Vector_157" d="M75.3332 156H18.4443V212.889H75.3332V156Z" fill="white"/>
</g>
</mask>
<g mask="url(#mask105_6578_3234)">
<g id="Group_173">
<g id="Clip path group_107">
<mask id="mask106_6578_3234" style="mask-type:luminance" maskUnits="userSpaceOnUse" x="19" y="156" width="57" height="56">
<g id="ba950391ac">
<path id="Vector_158" d="M19.4307 156.201H75.2362V212H19.4307V156.201Z" fill="white"/>
</g>
</mask>
<g mask="url(#mask106_6578_3234)">
<g id="Group_174">
<g id="Clip path group_108">
<mask id="mask107_6578_3234" style="mask-type:luminance" maskUnits="userSpaceOnUse" x="19" y="156" width="57" height="56">
<g id="f16af29f61">
<path id="Vector_159" d="M47.3334 156.201C31.9237 156.201 19.4307 168.694 19.4307 184.097C19.4307 199.507 31.9237 212 47.3334 212C62.7432 212 75.2362 199.507 75.2362 184.097C75.2362 168.694 62.7432 156.201 47.3334 156.201Z" fill="white"/>
</g>
</mask>
<g mask="url(#mask107_6578_3234)">
<g id="Group_175">
<path id="Vector_160" d="M13.4307,16.201h55.8055v55.799h-55.8055z" fill="#122F8A"/>
</g>
</g>
</g>
</g>
</g>
</g>
</g>
</g>
</g>
</g>
</g>
</g>
</g>
</g>
</g>
</g>
<g id="Clip path group_109">
<mask id="mask108_6578_3234" style="mask-type:luminance" maskUnits="userSpaceOnUse" x="29" y="195" width="6" height="7">
<g id="ab8b25dea7">
<path id="Vector_161" d="M29.0557 195.111H34.4446V201.264H29.0557V195.111Z" fill="white"/>
</g>
</mask>
<g mask="url(#mask108_6578_3234)">
<g id="Group_176">
<path id="Vector_162" d="M23.0483,55.556h4.257v5.895h-4.257z" fill="#FE9900"/>
</g>
</g>
</g>
<g id="Clip path group_110">
<mask id="mask109_6578_3234" style="mask-type:luminance" maskUnits="userSpaceOnUse" x="36" y="191" width="6" height="11">
<g id="38f2594ed5">
<path id="Vector_163" d="M36.2222 191.556H41.5555V201.264H36.2222V191.556Z" fill="white"/>
</g>
</mask>
<g mask="url(#mask109_6578_3234)">
<g id="Group_177">
<path id="Vector_164" d="M31.1182,51.653h4.2569v9.798h-4.2569z" fill="#FE9900"/>
</g>
</g>
</g>
<g id="Clip path group_111">
<mask id="mask110_6578_3234" style="mask-type:luminance" maskUnits="userSpaceOnUse" x="45" y="188" width="6" height="14">
<g id="01079b5f68">
<path id="Vector_165" d="M45.1113 188H50.4447V201.264H45.1113V188Z" fill="white"/>
</g>
</mask>
<g mask="url(#mask110_6578_3234)">
<g id="Group_178">
<path id="Vector_166" d="M39.1875,49.306h4.2569v12.145h-4.2569z" fill="#FE9900"/>
</g>
</g>
</g>
<g id="Clip path group_112">
<mask id="mask111_6578_3234" style="mask-type:luminance" maskUnits="userSpaceOnUse" x="52" y="186" width="6" height="16">
<g id="7e01d4a4a8">
<path id="Vector_167" d="M52.2222 186.222H57.5555V201.264H52.2222V186.222Z" fill="white"/>
</g>
</mask>
<g mask="url(#mask111_6578_3234)">
<g id="Group_179">
<path id="Vector_168" d="M47.2568,46.243h4.257v15.208h-4.257z" fill="#FE9900"/>
</g>
</g>
</g>
<g id="Clip path group_113">
<mask id="mask112_6578_3234" style="mask-type:luminance" maskUnits="userSpaceOnUse" x="61" y="180" width="5" height="22">
<g id="d56521e4b6">
<path id="Vector_169" d="M61.1113 180.889H65.0558V201.264H61.1113V180.889Z" fill="white"/>
</g>
</mask>
<g mask="url(#mask112_6578_3234)">
<g id="Group_180">
<path id="Vector_170" d="M55.3267,42.188h4.2569v19.263h-4.2569z" fill="#FE9900"/>
</g>
</g>
</g>
<path id="Vector_171" d="M47.8819,28.055l1.7639,2.348c0.1042,0.139 0.0973,0.34 -0.0139,0.472c-0.1388,0.174 -12.6041,15.243 -26.1944,19.792c5.8264,-0.938 16.7569,-4.5 28.0486,-17.716c0.0625,-0.076 0.1597,-0.125 0.2639,-0.132c0.1042,-0.007 0.2014,0.021 0.2778,0.091l2.4514,2.132l1.243,-8.223z" fill="#FE9900"/>
<g id="Group_181">
<g id="Clip path group_114">
<mask id="mask113_6578_3234" style="mask-type:luminance" maskUnits="userSpaceOnUse" x="36" y="164" width="13" height="14">
<g id="c03e33bbb4">
<path id="Vector_172" d="M48.6666 164.889H36.2222V177.333H48.6666V164.889Z" fill="white"/>
</g>
</mask>
<g mask="url(#mask113_6578_3234)">
<g id="Group_182">
<g id="Clip path group_115">
<mask id="mask114_6578_3234" style="mask-type:luminance" maskUnits="userSpaceOnUse" x="38" y="165" width="9" height="12">
<g id="c1644e1736">
<path id="Vector_173" d="M38 165.597H46.8889V176.694H38V165.597Z" fill="white"/>
</g>
</mask>
<g mask="url(#mask114_6578_3234)">
<g id="Group_183">
<g id="Group_184">
<g id="Group_185">
<g id="Group_186">
<path id="Vector_174" d="M35.9305,34.073l-0.1667,0.25l-0.6944,-0.139l-0.5556,0.917l0.4723,0.555l-0.1667,0.278l-1.7222,-2.083l0.2222,-0.333zM33.4583,33.879l0.8611,1.055l0.4722,-0.805l-1.3055,-0.306z" fill="#122F8A"/>
</g>
</g>
<g id="Group_187">
<g id="Group_188">
<path id="Vector_175" d="M34.4878,31.553c0.0973,-0.146 0.1945,-0.257 0.3056,-0.333c0.0972,-0.069 0.2153,-0.111 0.3611,-0.111c0.1528,0 0.2917,0.042 0.4167,0.111c0.1528,0.097 0.25,0.208 0.3055,0.333c0.0417,0.111 0.0556,0.243 0.0556,0.389c0,0.132 -0.0417,0.271 -0.1389,0.417l-0.3056,0.528l0.8612,0.5l-0.1667,0.25l-2.1667,-1.306zM35.5712,32.248c0.1666,-0.313 0.1041,-0.563 -0.1945,-0.75c-0.2777,-0.167 -0.5,-0.091 -0.6666,0.222l-0.3056,0.5l0.8611,0.528z" fill="#122F8A"/>
</g>
</g>
<g id="Group_189">
<g id="Group_190">
<path id="Vector_176" d="M37.3698,31.65l-2.1667,-1.305l0.5,-0.806c0.0764,-0.146 0.1597,-0.25 0.25,-0.305c0.0972,-0.07 0.1945,-0.111 0.3056,-0.111c0.1111,0 0.2222,0.041 0.3333,0.111c0.0972,0.055 0.1667,0.132 0.2222,0.222c0.0417,0.097 0.0486,0.208 0.0278,0.333h0.0278c0.1319,-0.111 0.2639,-0.173 0.3889,-0.194c0.1458,-0.035 0.2916,-0.014 0.4444,0.055c0.2014,0.132 0.3195,0.292 0.3611,0.473c0.0348,0.187 -0.0208,0.402 -0.1666,0.638zM36.6198,30.095c0.0764,-0.125 0.1042,-0.236 0.0833,-0.334c-0.0347,-0.111 -0.1111,-0.201 -0.2222,-0.277c-0.1111,-0.056 -0.2083,-0.07 -0.3056,-0.056c-0.1111,0.021 -0.2013,0.097 -0.2777,0.222l-0.3334,0.556l0.7223,0.444zM37.6753,30.65c0.1806,-0.312 0.1389,-0.555 -0.1388,-0.722c-0.2778,-0.167 -0.507,-0.09 -0.6945,0.222l-0.3611,0.611l0.8333,0.5z" fill="#122F8A"/>
</g>
</g>
<g id="Group_191">
<g id="Group_192">
<path id="Vector_177" d="M39.1784,28.693c-0.1111,0.208 -0.2639,0.354 -0.4445,0.444c-0.1875,0.097 -0.375,0.132 -0.5833,0.111c-0.2222,-0.014 -0.4444,-0.097 -0.6667,-0.25c-0.2361,-0.125 -0.4166,-0.285 -0.5277,-0.472c-0.125,-0.181 -0.1945,-0.375 -0.1945,-0.583c0,-0.202 0.0556,-0.403 0.1667,-0.612c0.1111,-0.18 0.25,-0.319 0.4167,-0.416c0.1666,-0.09 0.3472,-0.111 0.5277,-0.056l0.0278,0.222l-0.0278,0.028c-0.1666,-0.034 -0.2916,-0.014 -0.3889,0.056c-0.1111,0.076 -0.2083,0.18 -0.3055,0.305c-0.0695,0.153 -0.1111,0.299 -0.1111,0.445c0,0.153 0.0486,0.298 0.1389,0.444c0.0764,0.132 0.2222,0.25 0.4444,0.361c0.2083,0.132 0.3889,0.209 0.5556,0.223c0.1666,0.02 0.3125,0 0.4444,-0.056c0.125,-0.069 0.2292,-0.181 0.3056,-0.333c0.0902,-0.125 0.125,-0.264 0.1111,-0.417c-0.0209,-0.167 -0.0834,-0.312 -0.1945,-0.444l0.0278,-0.056l0.1667,-0.111c0.1666,0.167 0.2569,0.354 0.2778,0.555c0.0138,0.209 -0.0417,0.41 -0.1667,0.612z" fill="#122F8A"/>
</g>
</g>
</g>
</g>
</g>
</g>
</g>
</g>
</g>
</g>
<g id="Group_193">
<g id="Clip path group_116">
<mask id="mask115_6578_3234" style="mask-type:luminance" maskUnits="userSpaceOnUse" x="25" y="166" width="22" height="14">
<g id="89e54d6d02">
<path id="Vector_178" d="M46.889 166.667H25.5557V179.111H46.889V166.667Z" fill="white"/>
</g>
</mask>
<g mask="url(#mask115_6578_3234)">
<g id="Group_194">
<g id="Group_195">
<g id="Group_196">
<g id="Group_197">
<path id="Vector_179" d="M30.5065,28.602v2.778h-0.4444v-1.917l-0.8611,1.917h-0.3056l-0.8611,-1.917v1.917h-0.4445v-2.778h0.5l0.9723,2.167l0.9722,-2.167z" fill="white"/>
</g>
</g>
</g>
<g id="Group_198">
<g id="Group_199">
<g id="Group_200">
<path id="Vector_180" d="M33.0903,29.186l-1.3333,3.222h-0.4722l0.4444,-1.056l-0.8889,-2.166h0.5278l0.6111,1.666l0.6389,-1.666z" fill="white"/>
</g>
</g>
</g>
<g id="Clip path group_117">
<mask id="mask116_6578_3234" style="mask-type:luminance" maskUnits="userSpaceOnUse" x="26" y="173" width="4" height="5">
<g id="b38f32495b">
<path id="Vector_181" d="M26.0557 173.777H29.1112V177.333H26.0557V173.777Z" fill="white"/>
</g>
</mask>
<g mask="url(#mask116_6578_3234)">
<g id="Group_201">
<g id="Group_202">
<g id="Group_203">
<g id="Group_204">
<path id="Vector_182" d="M22.0987,35.296c0.1458,0.021 0.2778,0.097 0.3889,0.222c0.1111,0.132 0.1666,0.278 0.1666,0.445c0,0.153 -0.0416,0.278 -0.1111,0.389c-0.0764,0.111 -0.1875,0.208 -0.3333,0.278c-0.1319,0.055 -0.2917,0.083 -0.4722,0.083h-1.1111v-2.778h1.0555c0.1806,0 0.3403,0.042 0.4722,0.111c0.1459,0.056 0.25,0.139 0.3056,0.25c0.0694,0.097 0.1111,0.215 0.1111,0.361c0,0.153 -0.0486,0.278 -0.1389,0.389c-0.0764,0.111 -0.1875,0.195 -0.3333,0.25zM21.0709,35.102h0.5833c0.1459,0 0.257,-0.028 0.3334,-0.084c0.0903,-0.069 0.1389,-0.173 0.1389,-0.305c0,-0.125 -0.0486,-0.229 -0.1389,-0.306c-0.0764,-0.069 -0.1875,-0.111 -0.3334,-0.111h-0.5833zM21.682,36.352c0.1667,0 0.2847,-0.035 0.3611,-0.111c0.0903,-0.07 0.1389,-0.181 0.1389,-0.334c0,-0.125 -0.0486,-0.229 -0.1389,-0.305c-0.0972,-0.091 -0.2152,-0.139 -0.3611,-0.139h-0.6111v0.889z" fill="white"/>
</g>
</g>
</g>
</g>
</g>
</g>
<g id="Group_205">
<g id="Group_206">
<g id="Group_207">
<path id="Vector_183" d="M25.1464,34.519v2.194h-0.4722v-0.25c-0.0764,0.097 -0.1667,0.167 -0.2778,0.222c-0.1111,0.035 -0.2361,0.056 -0.3611,0.056c-0.1875,0 -0.3472,-0.035 -0.4722,-0.111c-0.1319,-0.07 -0.2431,-0.174 -0.3333,-0.306c-0.0764,-0.146 -0.1111,-0.319 -0.1111,-0.528v-1.277h0.4444v1.222c0,0.208 0.0417,0.361 0.1389,0.472c0.1111,0.097 0.25,0.139 0.4167,0.139c0.1666,0 0.2916,-0.042 0.3888,-0.139c0.1112,-0.111 0.1667,-0.264 0.1667,-0.472v-1.222z" fill="white"/>
</g>
</g>
</g>
<g id="Group_208">
<g id="Group_209">
<g id="Group_210">
<path id="Vector_184" d="M26.548,36.741c-0.1875,0 -0.3542,-0.028 -0.5,-0.083c-0.132,-0.056 -0.2362,-0.139 -0.3056,-0.25c-0.0764,-0.111 -0.125,-0.229 -0.1389,-0.361h0.4722c0.0139,0.097 0.0625,0.166 0.1389,0.222c0.0903,0.055 0.1945,0.083 0.3056,0.083c0.125,0 0.2291,-0.014 0.3055,-0.055c0.0695,-0.056 0.1111,-0.118 0.1111,-0.195c0,-0.069 -0.0486,-0.125 -0.1388,-0.166c-0.0764,-0.056 -0.1945,-0.098 -0.3612,-0.139c-0.1666,-0.056 -0.3055,-0.098 -0.4166,-0.139c-0.0972,-0.035 -0.1806,-0.097 -0.25,-0.195c-0.0764,-0.09 -0.1111,-0.208 -0.1111,-0.361c0,-0.111 0.0277,-0.208 0.0833,-0.305c0.0694,-0.111 0.1736,-0.195 0.3056,-0.25c0.125,-0.056 0.2777,-0.084 0.4444,-0.084c0.2569,0 0.4583,0.07 0.6111,0.195c0.1458,0.132 0.2292,0.305 0.25,0.528h-0.4444c-0.0209,-0.091 -0.0695,-0.167 -0.1389,-0.223c-0.0764,-0.069 -0.1667,-0.111 -0.2778,-0.111c-0.1319,0 -0.2361,0.028 -0.3056,0.084c-0.0555,0.041 -0.0833,0.097 -0.0833,0.166c0,0.056 0.0139,0.111 0.0556,0.167c0.0555,0.042 0.1111,0.069 0.1666,0.083c0.0695,0.021 0.1667,0.049 0.2778,0.084c0.1667,0.041 0.2917,0.083 0.3889,0.138c0.1111,0.042 0.2014,0.105 0.2778,0.195c0.0694,0.076 0.1111,0.187 0.1111,0.333c0,0.132 -0.0417,0.243 -0.1111,0.334c-0.0764,0.097 -0.1806,0.166 -0.3056,0.222c-0.1111,0.055 -0.25,0.083 -0.4166,0.083z" fill="white"/>
</g>
</g>
</g>
<g id="Group_211">
<g id="Group_212">
<g id="Group_213">
<path id="Vector_185" d="M28.6842,36.741c-0.1875,0 -0.3542,-0.028 -0.5,-0.083c-0.132,-0.056 -0.2361,-0.139 -0.3056,-0.25c-0.0764,-0.111 -0.125,-0.229 -0.1389,-0.361h0.4723c0.0139,0.097 0.0625,0.166 0.1389,0.222c0.0902,0.055 0.1944,0.083 0.3055,0.083c0.125,0 0.2292,-0.014 0.3056,-0.055c0.0694,-0.056 0.1111,-0.118 0.1111,-0.195c0,-0.069 -0.0486,-0.125 -0.1389,-0.166c-0.0764,-0.056 -0.1945,-0.098 -0.3611,-0.139c-0.1667,-0.056 -0.3056,-0.098 -0.4167,-0.139c-0.0972,-0.035 -0.1805,-0.097 -0.25,-0.195c-0.0764,-0.09 -0.1111,-0.208 -0.1111,-0.361c0,-0.111 0.0278,-0.208 0.0833,-0.305c0.0695,-0.111 0.1736,-0.195 0.3056,-0.25c0.125,-0.056 0.2778,-0.084 0.4444,-0.084c0.257,0 0.4584,0.07 0.6111,0.195c0.1459,0.132 0.2292,0.305 0.25,0.528h-0.4444c-0.0208,-0.091 -0.0694,-0.167 -0.1389,-0.223c-0.0764,-0.069 -0.1667,-0.111 -0.2778,-0.111c-0.1319,0 -0.2361,0.028 -0.3055,0.084c-0.0556,0.041 -0.0834,0.097 -0.0834,0.166c0,0.056 0.0139,0.111 0.0556,0.167c0.0556,0.042 0.1111,0.069 0.1667,0.083c0.0694,0.021 0.1666,0.049 0.2777,0.084c0.1667,0.041 0.2917,0.083 0.3889,0.138c0.1111,0.042 0.2014,0.105 0.2778,0.195c0.0695,0.076 0.1111,0.187 0.1111,0.333c0,0.132 -0.0416,0.243 -0.1111,0.334c-0.0764,0.097 -0.1805,0.166 -0.3055,0.222c-0.1112,0.055 -0.25,0.083 -0.4167,0.083z" fill="white"/>
</g>
</g>
</g>
<g id="Group_214">
<g id="Group_215">
<g id="Group_216">
<path id="Vector_186" d="M30.2368,34.213c-0.0764,0 -0.1389,-0.028 -0.1945,-0.083c-0.0555,-0.056 -0.0833,-0.118 -0.0833,-0.195c0,-0.09 0.0278,-0.166 0.0833,-0.222c0.0556,-0.055 0.1181,-0.083 0.1945,-0.083c0.0694,0 0.1389,0.028 0.1944,0.083c0.0695,0.056 0.1111,0.132 0.1111,0.222c0,0.077 -0.0416,0.139 -0.1111,0.195c-0.0555,0.055 -0.125,0.083 -0.1944,0.083zM30.459,34.519v2.194h-0.4445v-2.194z" fill="white"/>
</g>
</g>
</g>
<g id="Group_217">
<g id="Group_218">
<g id="Group_219">
<path id="Vector_187" d="M32.1814,34.463c0.1667,0 0.3125,0.042 0.4445,0.111c0.1458,0.077 0.2569,0.188 0.3333,0.334c0.0694,0.132 0.1111,0.298 0.1111,0.5v1.305h-0.4444v-1.222c0,-0.201 -0.0556,-0.347 -0.1667,-0.444c-0.0972,-0.111 -0.2222,-0.167 -0.3889,-0.167c-0.1667,0 -0.3055,0.056 -0.4167,0.167c-0.0972,0.097 -0.1388,0.243 -0.1388,0.444v1.222h-0.4445v-2.194h0.4445v0.25c0.0694,-0.09 0.1666,-0.167 0.2777,-0.222c0.125,-0.056 0.257,-0.084 0.3889,-0.084z" fill="white"/>
</g>
</g>
</g>
<g id="Group_220">
<g id="Group_221">
<g id="Group_222">
<path id="Vector_188" d="M35.6944,35.547c0,0.097 -0.0138,0.166 -0.0277,0.222h-1.6945c0.0139,0.187 0.0834,0.333 0.1945,0.444c0.125,0.098 0.2777,0.139 0.4444,0.139c0.2361,0 0.4167,-0.097 0.5278,-0.305h0.4722c-0.0555,0.208 -0.1805,0.375 -0.3611,0.5c-0.1667,0.132 -0.3819,0.194 -0.6389,0.194c-0.2083,0 -0.3889,-0.042 -0.5555,-0.139c-0.1667,-0.09 -0.3056,-0.222 -0.4167,-0.389c-0.0972,-0.18 -0.1389,-0.389 -0.1389,-0.611c0,-0.222 0.0417,-0.416 0.1389,-0.583c0.0903,-0.181 0.2222,-0.32 0.3889,-0.417c0.1666,-0.09 0.3611,-0.139 0.5833,-0.139c0.2014,0 0.3889,0.049 0.5556,0.139c0.1666,0.097 0.2916,0.222 0.3889,0.389c0.0902,0.167 0.1388,0.354 0.1388,0.556zM35.1944,35.408c0,-0.167 -0.0555,-0.292 -0.1666,-0.389c-0.1111,-0.111 -0.2639,-0.167 -0.4445,-0.167c-0.1527,0 -0.2777,0.056 -0.3889,0.167c-0.1111,0.097 -0.1875,0.222 -0.2222,0.389z" fill="white"/>
</g>
</g>
</g>
<g id="Group_223">
<g id="Group_224">
<g id="Group_225">
<path id="Vector_189" d="M36.94,36.741c-0.1875,0 -0.3541,-0.028 -0.5,-0.083c-0.1319,-0.056 -0.2361,-0.139 -0.3055,-0.25c-0.0764,-0.111 -0.125,-0.229 -0.1389,-0.361h0.4722c0.0139,0.097 0.0625,0.166 0.1389,0.222c0.0903,0.055 0.1945,0.083 0.3056,0.083c0.125,0 0.2291,-0.014 0.3055,-0.055c0.0695,-0.056 0.1111,-0.118 0.1111,-0.195c0,-0.069 -0.0486,-0.125 -0.1389,-0.166c-0.0763,-0.056 -0.1944,-0.098 -0.3611,-0.139c-0.1666,-0.056 -0.3055,-0.098 -0.4166,-0.139c-0.0972,-0.035 -0.1806,-0.097 -0.25,-0.195c-0.0764,-0.09 -0.1111,-0.208 -0.1111,-0.361c0,-0.111 0.0277,-0.208 0.0833,-0.305c0.0694,-0.111 0.1736,-0.195 0.3055,-0.25c0.125,-0.056 0.2778,-0.084 0.4445,-0.084c0.2569,0 0.4583,0.07 0.6111,0.195c0.1458,0.132 0.2292,0.305 0.25,0.528h-0.4444c-0.0209,-0.091 -0.0695,-0.167 -0.1389,-0.223c-0.0764,-0.069 -0.1667,-0.111 -0.2778,-0.111c-0.132,0 -0.2361,0.028 -0.3056,0.084c-0.0555,0.041 -0.0833,0.097 -0.0833,0.166c0,0.056 0.0139,0.111 0.0556,0.167c0.0555,0.042 0.1111,0.069 0.1666,0.083c0.0695,0.021 0.1667,0.049 0.2778,0.084c0.1667,0.041 0.2917,0.083 0.3889,0.138c0.1111,0.042 0.2014,0.105 0.2778,0.195c0.0694,0.076 0.1111,0.187 0.1111,0.333c0,0.132 -0.0417,0.243 -0.1111,0.334c-0.0764,0.097 -0.1806,0.166 -0.3056,0.222c-0.1111,0.055 -0.25,0.083 -0.4167,0.083z" fill="white"/>
</g>
</g>
</g>
<g id="Clip path group_118">
<mask id="mask117_6578_3234" style="mask-type:luminance" maskUnits="userSpaceOnUse" x="43" y="173" width="4" height="5">
<g id="6b6b346470">
<path id="Vector_190" d="M43.3335 173.777H46.5349V177.333H43.3335V173.777Z" fill="white"/>
</g>
</mask>
<g mask="url(#mask117_6578_3234)">
<g id="Group_226">
<g id="Group_227">
<g id="Group_228">
<g id="Group_229">
<path id="Vector_191" d="M39.0763,36.741c-0.1875,0 -0.3542,-0.028 -0.5,-0.084c-0.132,-0.055 -0.2361,-0.139 -0.3056,-0.25c-0.0764,-0.111 -0.125,-0.229 -0.1389,-0.361h0.4723c0.0138,0.097 0.0625,0.167 0.1388,0.222c0.0903,0.056 0.1945,0.084 0.3056,0.084c0.125,0 0.2292,-0.014 0.3056,-0.056c0.0694,-0.055 0.1111,-0.118 0.1111,-0.194c0,-0.07 -0.0486,-0.125 -0.1389,-0.167c-0.0764,-0.055 -0.1945,-0.097 -0.3611,-0.139c-0.1667,-0.055 -0.3056,-0.097 -0.4167,-0.139c-0.0972,-0.034 -0.1806,-0.097 -0.25,-0.194c-0.0764,-0.09 -0.1111,-0.208 -0.1111,-0.361c0,-0.111 0.0278,-0.209 0.0833,-0.306c0.0695,-0.111 0.1736,-0.194 0.3056,-0.25c0.125,-0.055 0.2778,-0.083 0.4444,-0.083c0.257,0 0.4584,0.069 0.6111,0.194c0.1459,0.132 0.2292,0.306 0.25,0.528h-0.4444c-0.0208,-0.09 -0.0695,-0.167 -0.1389,-0.222c-0.0764,-0.07 -0.1667,-0.111 -0.2778,-0.111c-0.1319,0 -0.2361,0.028 -0.3055,0.083c-0.0556,0.042 -0.0834,0.097 -0.0834,0.167c0,0.055 0.0139,0.111 0.0556,0.166c0.0555,0.042 0.1111,0.07 0.1667,0.084c0.0694,0.021 0.1666,0.048 0.2777,0.083c0.1667,0.042 0.2917,0.083 0.3889,0.139c0.1111,0.042 0.2014,0.104 0.2778,0.194c0.0694,0.077 0.1111,0.188 0.1111,0.334c0,0.132 -0.0417,0.243 -0.1111,0.333c-0.0764,0.097 -0.1806,0.167 -0.3056,0.222c-0.1111,0.056 -0.25,0.084 -0.4166,0.084z" fill="white"/>
</g>
</g>
</g>
</g>
</g>
</g>
</g>
</g>
</g>
</g>
<g id="Group_230">
<g id="Clip path group_119">
<mask id="mask118_6578_3234" style="mask-type:luminance" maskUnits="userSpaceOnUse" x="55" y="188" width="8" height="13">
<g id="ea214480fe">
<path id="Vector_192" d="M62.8889 188H55.7778V200.444H62.8889V188Z" fill="white"/>
</g>
</mask>
<g mask="url(#mask118_6578_3234)">
<g id="Group_231">
<g id="Clip path group_120">
<mask id="mask119_6578_3234" style="mask-type:luminance" maskUnits="userSpaceOnUse" x="57" y="189" width="5" height="10">
<g id="59ec69e732">
<path id="Vector_193" d="M57.5557 189.069H61.1112V198.882H57.5557V189.069Z" fill="white"/>
</g>
</mask>
<g mask="url(#mask119_6578_3234)">
<g id="Group_232">
<g id="Group_233">
<g id="Group_234">
<g id="Group_235">
<path id="Vector_194" d="M54.5165,56.6v0.306l-0.6944,0.25v1.083l0.6944,0.222v0.306l-2.5277,-0.889v-0.389zM52.2943,57.711l1.2778,0.445v-0.917l-1.2778,0.417z" fill="#737373"/>
</g>
</g>
<g id="Group_236">
<g id="Group_237">
<path id="Vector_195" d="M51.9888,55.187c0,-0.167 0.0277,-0.306 0.0833,-0.417c0.0556,-0.125 0.1528,-0.229 0.2778,-0.305c0.1111,-0.07 0.243,-0.111 0.3889,-0.111c0.1666,0 0.3055,0.041 0.4166,0.111c0.1111,0.076 0.2084,0.18 0.2778,0.305c0.0556,0.111 0.0833,0.25 0.0833,0.417v0.611h1v0.306h-2.5277zM53.2665,55.215c0,-0.348 -0.1736,-0.528 -0.5277,-0.528c-0.3334,0 -0.5,0.18 -0.5,0.528v0.583h1.0277z" fill="#737373"/>
</g>
</g>
<g id="Group_238">
<g id="Group_239">
<path id="Vector_196" d="M54.5165,53.789h-2.5277v-0.944c0,-0.167 0.0277,-0.306 0.0833,-0.417c0.0417,-0.111 0.1042,-0.194 0.1944,-0.25c0.0973,-0.055 0.2084,-0.083 0.3334,-0.083c0.1111,0 0.2153,0.042 0.3055,0.111c0.0764,0.056 0.1389,0.139 0.1945,0.25h0.0278c0.0555,-0.167 0.1388,-0.292 0.25,-0.389c0.0972,-0.09 0.2222,-0.139 0.3888,-0.139c0.2431,0 0.4306,0.077 0.5556,0.222c0.1319,0.132 0.1944,0.334 0.1944,0.612zM53.0443,52.845c0,-0.146 -0.0347,-0.257 -0.1111,-0.333c-0.0694,-0.07 -0.1736,-0.112 -0.3055,-0.112c-0.125,0 -0.2292,0.042 -0.3056,0.112c-0.0694,0.076 -0.1111,0.187 -0.1111,0.333v0.639h0.8333zM54.2665,52.789c0,-0.368 -0.1666,-0.555 -0.5,-0.555c-0.3125,0 -0.4722,0.187 -0.4722,0.555v0.695h0.9722z" fill="#737373"/>
</g>
</g>
<g id="Group_240">
<g id="Group_241">
<path id="Vector_197" d="M54.5442,50.319c0,0.222 -0.0417,0.431 -0.1389,0.611c-0.1111,0.167 -0.2569,0.306 -0.4444,0.417c-0.2014,0.097 -0.4445,0.139 -0.7222,0.139c-0.2778,0 -0.507,-0.042 -0.6945,-0.139c-0.2014,-0.111 -0.3472,-0.25 -0.4444,-0.417c-0.1111,-0.18 -0.1667,-0.389 -0.1667,-0.611c0,-0.222 0.0486,-0.403 0.1389,-0.556c0.0972,-0.166 0.2361,-0.284 0.4167,-0.361l0.1111,0.195v0.028c-0.1459,0.076 -0.25,0.166 -0.3056,0.277c-0.0555,0.111 -0.0833,0.25 -0.0833,0.417c0,0.167 0.0416,0.319 0.1111,0.444c0.0764,0.112 0.1875,0.209 0.3333,0.278c0.1528,0.077 0.3473,0.111 0.5834,0.111c0.243,0 0.4444,-0.034 0.6111,-0.111c0.1528,-0.069 0.2639,-0.166 0.3333,-0.278c0.0764,-0.125 0.1111,-0.277 0.1111,-0.444c0,-0.167 -0.0347,-0.306 -0.1111,-0.417c-0.0903,-0.125 -0.2292,-0.222 -0.4167,-0.277v-0.056l0.0834,-0.194c0.2222,0.055 0.4027,0.166 0.5277,0.333c0.1112,0.167 0.1667,0.375 0.1667,0.611z" fill="#737373"/>
</g>
</g>
</g>
</g>
</g>
</g>
</g>
</g>
</g>
</g>
</g></svg>