<svg viewBox="0 0 80 80" fill="none" xmlns="http://www.w3.org/2000/svg" xmlns:xlink="http://www.w3.org/1999/xlink" x="0" y="0"><defs><mask id="mask54_6578_3234" style="mask-type:luminance" maskUnits="userSpaceOnUse" x="13" y="11" width="57" height="57">
<g id="87a3c41c42">
<path id="Vector_77" d="M13.4302,11.715h55.8055v55.799h-55.8055z" fill="white"/>
</g>
</mask><mask id="mask55_6578_3234" style="mask-type:luminance" maskUnits="userSpaceOnUse" x="13" y="11" width="57" height="57">
<g id="2f2f80451f">
<path id="Vector_78" d="M41.333,11.715c-15.4098,0 -27.9028,12.493 -27.9028,27.896c0,15.41 12.493,27.903 27.9028,27.903c15.4097,0 27.9027,-12.493 27.9027,-27.903c0,-15.403 -12.493,-27.896 -27.9027,-27.896z" fill="white"/>
</g>
</mask><mask id="mask56_6578_3234" style="mask-type:luminance" maskUnits="userSpaceOnUse" x="12" y="11" width="58" height="58">
<g id="ec7459883c">
<path id="Vector_79" d="M69.3327,11.514h-56.8889v56.889h56.8889z" fill="white"/>
</g>
</mask><mask id="mask57_6578_3234" style="mask-type:luminance" maskUnits="userSpaceOnUse" x="13" y="11" width="57" height="57">
<g id="16840999ea">
<path id="Vector_80" d="M13.4302,11.715h55.8055v55.799h-55.8055z" fill="white"/>
</g>
</mask><mask id="mask58_6578_3234" style="mask-type:luminance" maskUnits="userSpaceOnUse" x="13" y="11" width="57" height="57">
<g id="9c5caa72d7">
<path id="Vector_81" d="M41.333,11.715c-15.4098,0 -27.9028,12.493 -27.9028,27.896c0,15.41 12.493,27.903 27.9028,27.903c15.4097,0 27.9027,-12.493 27.9027,-27.903c0,-15.403 -12.493,-27.896 -27.9027,-27.896z" fill="white"/>
</g>
</mask><mask id="mask59_6578_3234" style="mask-type:luminance" maskUnits="userSpaceOnUse" x="20" y="23" width="41" height="41">
<g id="9964f56695">
<path id="Vector_83" d="M20.0278,23.188h40v40.812h-40z" fill="white"/>
</g>
</mask><mask id="mask60_6578_3234" style="mask-type:luminance" maskUnits="userSpaceOnUse" x="33" y="64" width="14" height="6">
<g id="b848855e9a">
<path id="Vector_85" d="M46.2223,64h-12.4445v5.333h12.4445z" fill="white"/>
</g>
</mask><mask id="mask61_6578_3234" style="mask-type:luminance" maskUnits="userSpaceOnUse" x="35" y="64" width="10" height="6">
<g id="941b347a16">
<path id="Vector_86" d="M35.5557,64.424h8.8889v4.694h-8.8889z" fill="white"/>
</g>
</mask></defs><g id="EMPLOYEES 1">
<g id="Clip path group_55">
<mask id="mask54_6578_3234" style="mask-type:luminance" maskUnits="userSpaceOnUse" x="20" y="287" width="57" height="57">
<g id="87a3c41c42">
<path id="Vector_77" d="M20.4302 287.715H76.2357V343.514H20.4302V287.715Z" fill="white"/>
</g>
</mask>
<g mask="url(#mask54_6578_3234)">
<g id="Group_87">
<g id="Clip path group_56">
<mask id="mask55_6578_3234" style="mask-type:luminance" maskUnits="userSpaceOnUse" x="20" y="287" width="57" height="57">
<g id="2f2f80451f">
<path id="Vector_78" d="M48.333 287.715C32.9232 287.715 20.4302 300.208 20.4302 315.611C20.4302 331.021 32.9232 343.514 48.333 343.514C63.7427 343.514 76.2357 331.021 76.2357 315.611C76.2357 300.208 63.7427 287.715 48.333 287.715Z" fill="white"/>
</g>
</mask>
<g mask="url(#mask55_6578_3234)">
<g id="Group_88">
<g id="Group_89">
<g id="Clip path group_57">
<mask id="mask56_6578_3234" style="mask-type:luminance" maskUnits="userSpaceOnUse" x="19" y="287" width="58" height="58">
<g id="ec7459883c">
<path id="Vector_79" d="M76.3327 287.514H19.4438V344.403H76.3327V287.514Z" fill="white"/>
</g>
</mask>
<g mask="url(#mask56_6578_3234)">
<g id="Group_90">
<g id="Clip path group_58">
<mask id="mask57_6578_3234" style="mask-type:luminance" maskUnits="userSpaceOnUse" x="20" y="287" width="57" height="57">
<g id="16840999ea">
<path id="Vector_80" d="M20.4302 287.715H76.2357V343.514H20.4302V287.715Z" fill="white"/>
</g>
</mask>
<g mask="url(#mask57_6578_3234)">
<g id="Group_91">
<g id="Clip path group_59">
<mask id="mask58_6578_3234" style="mask-type:luminance" maskUnits="userSpaceOnUse" x="20" y="287" width="57" height="57">
<g id="9c5caa72d7">
<path id="Vector_81" d="M48.333 287.715C32.9232 287.715 20.4302 300.208 20.4302 315.611C20.4302 331.021 32.9232 343.514 48.333 343.514C63.7427 343.514 76.2357 331.021 76.2357 315.611C76.2357 300.208 63.7427 287.715 48.333 287.715Z" fill="white"/>
</g>
</mask>
<g mask="url(#mask58_6578_3234)">
<g id="Group_92">
<path id="Vector_82" d="M13.4302,11.715h55.8055v55.799h-55.8055z" fill="#122F8A"/>
</g>
</g>
</g>
</g>
</g>
</g>
</g>
</g>
</g>
</g>
</g>
</g>
</g>
</g>
</g>
</g>
<g id="Clip path group_60">
<mask id="mask59_6578_3234" style="mask-type:luminance" maskUnits="userSpaceOnUse" x="27" y="299" width="41" height="41">
<g id="9964f56695">
<path id="Vector_83" d="M27.0278 299.188H67.0278V340H27.0278V299.188Z" fill="white"/>
</g>
</mask>
<g mask="url(#mask59_6578_3234)">
<g id="Group_93">
<path id="Vector_84" fill-rule="evenodd" clip-rule="evenodd" d="M46.4376,43.327c-0.6042,0.368 -1.375,0.659 -2.2431,0.881c-0.3819,-0.937 -1,-1.687 -1.8403,-2.25c-0.8403,-0.562 -1.7708,-0.84 -2.7847,-0.84c-1.0139,0 -1.9375,0.278 -2.7778,0.84c-0.8472,0.563 -1.4583,1.313 -1.8472,2.25c-0.7361,-0.173 -1.4375,-0.444 -2.0972,-0.798c0.4166,-0.91 0.5486,-1.854 0.3958,-2.847c-0.1528,-0.986 -0.5625,-1.855 -1.2292,-2.598c0.3264,-0.736 0.75,-1.409 1.2778,-2.02c0.5209,-0.612 1.125,-1.139 1.7986,-1.577c0.6806,-0.437 1.4098,-0.764 2.1806,-0.993c0.7778,-0.222 1.5694,-0.333 2.375,-0.326c0.8055,0.007 1.5903,0.132 2.3611,0.368c0.7708,0.236 1.4931,0.583 2.1667,1.028c0.6666,0.451 1.2569,0.986 1.7708,1.611c0.5139,0.618 0.9306,1.298 1.2431,2.041c-0.6112,0.73 -0.9862,1.57 -1.1181,2.507c-0.1389,0.945 -0.0139,1.854 0.3681,2.723zM54.1806,23.208c0.7708,0 1.507,0.146 2.2153,0.445c0.7083,0.292 1.3333,0.708 1.8819,1.25c0.5417,0.542 0.9584,1.167 1.25,1.875c0.2917,0.708 0.4445,1.451 0.4445,2.215c0,0.771 -0.1528,1.507 -0.4445,2.215c-0.2916,0.709 -0.7083,1.334 -1.25,1.875c-0.5486,0.542 -1.1736,0.966 -1.8819,1.257c-0.7083,0.292 -1.4445,0.438 -2.2153,0.438c-0.7639,0 -1.5,-0.146 -2.2083,-0.438c-0.7084,-0.291 -1.3403,-0.715 -1.882,-1.257c-0.5416,-0.541 -0.9583,-1.166 -1.25,-1.875c-0.2986,-0.708 -0.4444,-1.444 -0.4444,-2.215c0,-0.764 0.1458,-1.507 0.4444,-2.215c0.2917,-0.708 0.7084,-1.333 1.25,-1.875c0.5417,-0.542 1.1736,-0.958 1.882,-1.25c0.7083,-0.299 1.4444,-0.445 2.2083,-0.445zM53.5903,25.5v2.903h-2.9027c-0.1667,0 -0.3056,0.055 -0.4167,0.174c-0.1181,0.118 -0.1736,0.256 -0.1736,0.416c0,0.167 0.0555,0.306 0.1736,0.424c0.1111,0.111 0.25,0.173 0.4167,0.173h2.9027v2.903c0,0.16 0.0556,0.306 0.1736,0.417c0.1181,0.118 0.257,0.173 0.4167,0.173c0.1667,0 0.3056,-0.055 0.4236,-0.173c0.1111,-0.111 0.1736,-0.257 0.1736,-0.417v-2.903h2.9028c0.1667,0 0.3056,-0.062 0.4167,-0.173c0.118,-0.118 0.1736,-0.257 0.1736,-0.424c0,-0.16 -0.0556,-0.298 -0.1736,-0.416c-0.1111,-0.119 -0.25,-0.174 -0.4167,-0.174h-2.9028v-2.903c0,-0.167 -0.0625,-0.305 -0.1736,-0.423c-0.118,-0.112 -0.2569,-0.174 -0.4236,-0.174c-0.1597,0 -0.2986,0.062 -0.4167,0.174c-0.118,0.118 -0.1736,0.256 -0.1736,0.423zM47.8403,60.41c0,4.562 -16.5347,4.562 -16.5347,0c0,-0.542 0.0556,-1.077 0.1597,-1.611c0.1111,-0.528 0.2709,-1.049 0.4792,-1.549c0.2083,-0.493 0.4583,-0.972 0.7639,-1.423c0.2986,-0.445 0.6458,-0.862 1.0278,-1.244c0.3819,-0.381 0.7986,-0.729 1.25,-1.027c0.4514,-0.299 0.9305,-0.556 1.4305,-0.757c0.5,-0.209 1.0139,-0.368 1.5486,-0.472c0.5278,-0.105 1.0625,-0.16 1.6042,-0.16c0.5417,0 1.0833,0.055 1.6111,0.16c0.5347,0.104 1.0486,0.263 1.5486,0.472c0.5,0.201 0.9722,0.458 1.4236,0.757c0.4514,0.298 0.8681,0.646 1.257,1.027c0.3819,0.382 0.7222,0.799 1.0278,1.244c0.2986,0.451 0.5555,0.93 0.7638,1.423c0.2084,0.5 0.3681,1.021 0.4723,1.549c0.1041,0.534 0.1597,1.069 0.1666,1.611zM35.7501,46.118c0,0.507 0.0972,1 0.2916,1.465c0.1945,0.466 0.4722,0.882 0.8264,1.237c0.3611,0.361 0.7708,0.638 1.2431,0.833c0.4652,0.194 0.9514,0.292 1.4583,0.292c0.5069,0 0.9931,-0.098 1.4653,-0.292c0.4653,-0.195 0.8819,-0.472 1.2361,-0.826c0.3611,-0.362 0.6389,-0.778 0.8333,-1.244c0.1875,-0.465 0.2847,-0.958 0.2847,-1.458c0,-0.507 -0.0972,-1 -0.2847,-1.465c-0.1944,-0.465 -0.4722,-0.882 -0.8333,-1.236c-0.3542,-0.361 -0.7708,-0.639 -1.2361,-0.834c-0.4722,-0.194 -0.9584,-0.291 -1.4653,-0.291c-0.5069,0 -0.9931,0.097 -1.4583,0.291c-0.4723,0.195 -0.882,0.473 -1.2431,0.827c-0.3542,0.361 -0.6319,0.778 -0.8264,1.243c-0.1944,0.465 -0.2916,0.951 -0.2916,1.458zM30.2362,58.945c0.243,-1.57 0.8472,-2.98 1.8055,-4.243c0.9584,-1.264 2.1597,-2.23 3.5972,-2.889c-0.4236,-0.827 -0.9722,-1.556 -1.6458,-2.195c-0.6667,-0.639 -1.4236,-1.146 -2.2639,-1.535c-0.8472,-0.381 -1.7291,-0.618 -2.6528,-0.708c-0.9236,-0.083 -1.8333,-0.021 -2.7291,0.202c-0.9028,0.215 -1.7431,0.576 -2.5209,1.076c-0.7777,0.5 -1.4583,1.118 -2.0277,1.847c-0.5764,0.729 -1.0139,1.528 -1.3125,2.403c-0.3056,0.875 -0.4584,1.778 -0.4584,2.701c0,2.646 5.5417,3.757 10.2084,3.341zM59.2848,55.604c0,-0.93 -0.1528,-1.833 -0.4584,-2.708c-0.3055,-0.882 -0.743,-1.681 -1.3194,-2.41c-0.5764,-0.736 -1.2569,-1.347 -2.0417,-1.847c-0.7847,-0.5 -1.625,-0.861 -2.5277,-1.076c-0.9098,-0.216 -1.8195,-0.271 -2.7431,-0.181c-0.9306,0.09 -1.8125,0.333 -2.6528,0.729c-0.8472,0.389 -1.6041,0.91 -2.2708,1.556c-0.6667,0.646 -1.2083,1.382 -1.632,2.208c1.4028,0.674 2.5695,1.632 3.507,2.875c0.9305,1.25 1.5139,2.639 1.7569,4.174c4.7014,0.465 10.382,-0.646 10.382,-3.32zM47.2014,41.32c0,0.507 0.0973,0.993 0.2917,1.458c0.1945,0.472 0.4653,0.882 0.8264,1.243c0.3542,0.354 0.7708,0.632 1.2361,0.826c0.4722,0.195 0.9583,0.292 1.4653,0.292c0.5069,0 0.993,-0.097 1.4583,-0.292c0.4722,-0.194 0.882,-0.472 1.2431,-0.826c0.3541,-0.361 0.6319,-0.771 0.8264,-1.243c0.1944,-0.465 0.2916,-0.951 0.2916,-1.458c0,-0.507 -0.0972,-0.993 -0.2916,-1.466c-0.1945,-0.465 -0.4723,-0.882 -0.8264,-1.236c-0.3611,-0.361 -0.7709,-0.632 -1.2431,-0.826c-0.4653,-0.195 -0.9514,-0.292 -1.4583,-0.292c-0.507,0 -0.9931,0.097 -1.4653,0.292c-0.4653,0.194 -0.875,0.465 -1.2361,0.826c-0.3611,0.354 -0.6319,0.771 -0.8264,1.236c-0.1944,0.473 -0.2917,0.959 -0.2917,1.466zM24.4723,41.32c0,0.507 0.0972,0.993 0.2916,1.458c0.1945,0.472 0.4723,0.882 0.8334,1.243c0.3541,0.354 0.7708,0.632 1.2361,0.826c0.4653,0.195 0.9583,0.292 1.4653,0.292c0.5,0 0.993,-0.097 1.4583,-0.292c0.4653,-0.194 0.8819,-0.472 1.2431,-0.826c0.3541,-0.361 0.6319,-0.771 0.8263,-1.243c0.1945,-0.465 0.2917,-0.951 0.2917,-1.458c0,-0.507 -0.0972,-0.993 -0.2917,-1.466c-0.1944,-0.465 -0.4722,-0.882 -0.8263,-1.236c-0.3612,-0.361 -0.7709,-0.632 -1.2431,-0.826c-0.4653,-0.195 -0.9514,-0.292 -1.4583,-0.292c-0.507,0 -1,0.097 -1.4653,0.292c-0.4653,0.194 -0.882,0.465 -1.2361,0.826c-0.3611,0.354 -0.6389,0.771 -0.8334,1.236c-0.1944,0.473 -0.2916,0.959 -0.2916,1.466zM35.7501,27.028c0,0.507 0.0972,0.993 0.2916,1.465c0.1945,0.465 0.4722,0.882 0.8264,1.236c0.3611,0.361 0.7708,0.639 1.2431,0.827c0.4652,0.194 0.9514,0.291 1.4583,0.291c0.5069,0 0.9931,-0.097 1.4653,-0.284c0.4653,-0.195 0.8819,-0.473 1.2361,-0.834c0.3611,-0.354 0.6389,-0.771 0.8333,-1.236c0.1875,-0.472 0.2847,-0.958 0.2847,-1.465c0,-0.507 -0.0972,-0.993 -0.2847,-1.458c-0.1944,-0.473 -0.4722,-0.882 -0.8333,-1.243c-0.3542,-0.355 -0.7708,-0.632 -1.2361,-0.827c-0.4722,-0.194 -0.9584,-0.292 -1.4653,-0.292c-0.5069,0 -0.9931,0.098 -1.4583,0.292c-0.4723,0.195 -0.882,0.472 -1.2431,0.827c-0.3542,0.361 -0.6319,0.77 -0.8264,1.243c-0.1944,0.465 -0.2916,0.951 -0.2916,1.458z" fill="#FE9900"/>
</g>
</g>
</g>
<g id="Group_94">
<g id="Clip path group_61">
<mask id="mask60_6578_3234" style="mask-type:luminance" maskUnits="userSpaceOnUse" x="40" y="340" width="14" height="6">
<g id="b848855e9a">
<path id="Vector_85" d="M53.2223 340H40.7778V345.333H53.2223V340Z" fill="white"/>
</g>
</mask>
<g mask="url(#mask60_6578_3234)">
<g id="Group_95">
<g id="Clip path group_62">
<mask id="mask61_6578_3234" style="mask-type:luminance" maskUnits="userSpaceOnUse" x="42" y="340" width="10" height="6">
<g id="941b347a16">
<path id="Vector_86" d="M42.5557 340.424H51.4446V345.118H42.5557V340.424Z" fill="white"/>
</g>
</mask>
<g mask="url(#mask61_6578_3234)">
<g id="Group_96">
<g id="Group_97">
<g id="Group_98">
<g id="Group_99">
<path id="Vector_87" d="M37.7301,67.871h-0.2778l-0.2222,-0.611h-0.9445l-0.2222,0.611h-0.2778l0.8056,-2.25h0.3611zM36.7301,65.871l-0.3889,1.167h0.8333l-0.3889,-1.167z" fill="#737373"/>
</g>
</g>
<g id="Group_100">
<g id="Group_101">
<path id="Vector_88" d="M38.9696,65.621c0.1667,0 0.3056,0.028 0.4167,0.083c0.1111,0.056 0.1944,0.139 0.25,0.25c0.0555,0.098 0.0833,0.209 0.0833,0.334c0,0.153 -0.0278,0.278 -0.0833,0.389c-0.0556,0.097 -0.1389,0.166 -0.25,0.222c-0.1111,0.055 -0.25,0.083 -0.4167,0.083h-0.5278v0.889h-0.2777v-2.25zM38.9696,66.76c0.3125,0 0.4722,-0.153 0.4722,-0.472c0,-0.292 -0.1597,-0.445 -0.4722,-0.445h-0.5278v0.917z" fill="#737373"/>
</g>
</g>
<g id="Group_102">
<g id="Group_103">
<path id="Vector_89" d="M40.2285,67.871v-2.25h0.8611c0.1459,0 0.2639,0.021 0.3611,0.056c0.0903,0.041 0.1528,0.104 0.1945,0.194c0.0555,0.076 0.0833,0.167 0.0833,0.278c0,0.111 -0.0278,0.208 -0.0833,0.278c-0.0417,0.076 -0.1111,0.139 -0.2222,0.194v0.028c0.1458,0.042 0.2569,0.104 0.3333,0.194c0.0903,0.098 0.1389,0.216 0.1389,0.361c0,0.223 -0.0695,0.389 -0.1945,0.5c-0.1111,0.112 -0.2986,0.167 -0.5555,0.167zM41.0896,66.566c0.1111,0 0.2014,-0.028 0.2778,-0.084c0.0694,-0.069 0.1111,-0.166 0.1111,-0.278c0,-0.125 -0.0417,-0.222 -0.1111,-0.277c-0.0556,-0.056 -0.1528,-0.084 -0.2778,-0.084h-0.5833v0.723zM41.1452,67.649c0.3125,0 0.4722,-0.146 0.4722,-0.445c0,-0.277 -0.1597,-0.416 -0.4722,-0.416h-0.6389v0.861z" fill="#737373"/>
</g>
</g>
<g id="Group_104">
<g id="Group_105">
<path id="Vector_90" d="M43.3247,67.899c-0.2084,0 -0.382,-0.042 -0.5278,-0.139c-0.1528,-0.09 -0.2709,-0.222 -0.3611,-0.389c-0.0973,-0.167 -0.1389,-0.375 -0.1389,-0.639c0,-0.236 0.0416,-0.444 0.1389,-0.611c0.0902,-0.181 0.2083,-0.319 0.3611,-0.417c0.1458,-0.09 0.3194,-0.139 0.5278,-0.139c0.2013,0 0.375,0.049 0.5277,0.139c0.1459,0.077 0.25,0.195 0.3056,0.361l-0.1667,0.112h-0.0555c-0.0556,-0.125 -0.1389,-0.223 -0.25,-0.278c-0.0973,-0.056 -0.2153,-0.084 -0.3611,-0.084c-0.1528,0 -0.2778,0.042 -0.3889,0.112c-0.1111,0.055 -0.2084,0.159 -0.2778,0.305c-0.0556,0.132 -0.0833,0.299 -0.0833,0.5c0,0.222 0.0277,0.41 0.0833,0.556c0.0694,0.132 0.1667,0.236 0.2778,0.305c0.1111,0.056 0.2361,0.084 0.3889,0.084c0.1666,0 0.2916,-0.035 0.3888,-0.112c0.1112,-0.069 0.1945,-0.194 0.25,-0.361h0.0278l0.1945,0.084c-0.0556,0.208 -0.1598,0.361 -0.3056,0.472c-0.1528,0.097 -0.3333,0.139 -0.5555,0.139z" fill="#737373"/>
</g>
</g>
</g>
</g>
</g>
</g>
</g>
</g>
</g>
</g>
</g></svg>