<svg viewBox="0 0 80 80" fill="none" xmlns="http://www.w3.org/2000/svg" xmlns:xlink="http://www.w3.org/1999/xlink" x="0" y="0"><defs><mask id="mask70_6578_3234" style="mask-type:luminance" maskUnits="userSpaceOnUse" x="13" y="16" width="57" height="56">
<g id="d974deff08">
<path id="Vector_105" d="M13.4307,16.201h55.8055v55.799h-55.8055z" fill="white"/>
</g>
</mask><mask id="mask71_6578_3234" style="mask-type:luminance" maskUnits="userSpaceOnUse" x="13" y="16" width="57" height="56">
<g id="58e7be8af8">
<path id="Vector_106" d="M41.3334,16.201c-15.4097,0 -27.9027,12.493 -27.9027,27.896c0,15.41 12.493,27.903 27.9027,27.903c15.4098,0 27.9028,-12.493 27.9028,-27.903c0,-15.403 -12.493,-27.896 -27.9028,-27.896z" fill="white"/>
</g>
</mask><mask id="mask72_6578_3234" style="mask-type:luminance" maskUnits="userSpaceOnUse" x="12" y="16" width="58" height="57">
<g id="f95fbd10df">
<path id="Vector_107" d="M69.3332,16h-56.8889v56.889h56.8889z" fill="white"/>
</g>
</mask><mask id="mask73_6578_3234" style="mask-type:luminance" maskUnits="userSpaceOnUse" x="13" y="16" width="57" height="56">
<g id="8799455490">
<path id="Vector_108" d="M13.4307,16.201h55.8055v55.799h-55.8055z" fill="white"/>
</g>
</mask><mask id="mask74_6578_3234" style="mask-type:luminance" maskUnits="userSpaceOnUse" x="13" y="16" width="57" height="56">
<g id="91f7bfd969">
<path id="Vector_109" d="M41.3334,16.201c-15.4097,0 -27.9027,12.493 -27.9027,27.896c0,15.41 12.493,27.903 27.9027,27.903c15.4098,0 27.9028,-12.493 27.9028,-27.903c0,-15.403 -12.493,-27.896 -27.9028,-27.896z" fill="white"/>
</g>
</mask><mask id="mask75_6578_3234" style="mask-type:luminance" maskUnits="userSpaceOnUse" x="21" y="24" width="41" height="40">
<g id="10f6dbde5e">
<path id="Vector_111" d="M21.5347,24.299h40v39.701h-40z" fill="white"/>
</g>
</mask><mask id="mask76_6578_3234" style="mask-type:luminance" maskUnits="userSpaceOnUse" x="35" y="64" width="12" height="8">
<g id="7ba7e39044">
<path id="Vector_115" d="M46.2223,64h-10.6666v7.111h10.6666z" fill="white"/>
</g>
</mask><mask id="mask77_6578_3234" style="mask-type:luminance" maskUnits="userSpaceOnUse" x="36" y="65" width="11" height="5">
<g id="0cd6685cac">
<path id="Vector_116" d="M36.6943,65.778h9.3889v3.555h-9.3889z" fill="white"/>
</g>
</mask></defs><g id="HELP 1">
<g id="Clip path group_71">
<mask id="mask70_6578_3234" style="mask-type:luminance" maskUnits="userSpaceOnUse" x="19" y="546" width="57" height="56">
<g id="d974deff08">
<path id="Vector_105" d="M19.4307 546.201H75.2362V602H19.4307V546.201Z" fill="white"/>
</g>
</mask>
<g mask="url(#mask70_6578_3234)">
<g id="Group_125">
<g id="Clip path group_72">
<mask id="mask71_6578_3234" style="mask-type:luminance" maskUnits="userSpaceOnUse" x="19" y="546" width="57" height="56">
<g id="58e7be8af8">
<path id="Vector_106" d="M47.3334 546.201C31.9237 546.201 19.4307 558.694 19.4307 574.097C19.4307 589.507 31.9237 602 47.3334 602C62.7432 602 75.2362 589.507 75.2362 574.097C75.2362 558.694 62.7432 546.201 47.3334 546.201Z" fill="white"/>
</g>
</mask>
<g mask="url(#mask71_6578_3234)">
<g id="Group_126">
<g id="Group_127">
<g id="Clip path group_73">
<mask id="mask72_6578_3234" style="mask-type:luminance" maskUnits="userSpaceOnUse" x="18" y="546" width="58" height="57">
<g id="f95fbd10df">
<path id="Vector_107" d="M75.3332 546H18.4443V602.889H75.3332V546Z" fill="white"/>
</g>
</mask>
<g mask="url(#mask72_6578_3234)">
<g id="Group_128">
<g id="Clip path group_74">
<mask id="mask73_6578_3234" style="mask-type:luminance" maskUnits="userSpaceOnUse" x="19" y="546" width="57" height="56">
<g id="8799455490">
<path id="Vector_108" d="M19.4307 546.201H75.2362V602H19.4307V546.201Z" fill="white"/>
</g>
</mask>
<g mask="url(#mask73_6578_3234)">
<g id="Group_129">
<g id="Clip path group_75">
<mask id="mask74_6578_3234" style="mask-type:luminance" maskUnits="userSpaceOnUse" x="19" y="546" width="57" height="56">
<g id="91f7bfd969">
<path id="Vector_109" d="M47.3334 546.201C31.9237 546.201 19.4307 558.694 19.4307 574.097C19.4307 589.507 31.9237 602 47.3334 602C62.7432 602 75.2362 589.507 75.2362 574.097C75.2362 558.694 62.7432 546.201 47.3334 546.201Z" fill="white"/>
</g>
</mask>
<g mask="url(#mask74_6578_3234)">
<g id="Group_130">
<path id="Vector_110" d="M13.4307,16.201h55.8055v55.799h-55.8055z" fill="#122F8A"/>
</g>
</g>
</g>
</g>
</g>
</g>
</g>
</g>
</g>
</g>
</g>
</g>
</g>
</g>
</g>
</g>
<g id="Clip path group_76">
<mask id="mask75_6578_3234" style="mask-type:luminance" maskUnits="userSpaceOnUse" x="27" y="554" width="41" height="40">
<g id="10f6dbde5e">
<path id="Vector_111" d="M27.5347 554.299H67.5347V594H27.5347V554.299Z" fill="white"/>
</g>
</mask>
<g mask="url(#mask75_6578_3234)">
<g id="Group_131">
<path id="Vector_112" d="M41.3263,24.299c-1.2986,0 -2.5902,0.132 -3.8611,0.382c-1.2778,0.257 -2.5139,0.632 -3.7153,1.125c-1.2013,0.5 -2.3402,1.111 -3.4236,1.833c-1.0764,0.722 -2.0764,1.542 -2.993,2.458c-0.9236,0.917 -1.7431,1.917 -2.4653,3c-0.7222,1.084 -1.3333,2.223 -1.8264,3.424c-0.5,1.201 -0.875,2.438 -1.125,3.708c-0.2569,1.278 -0.3819,2.563 -0.3819,3.861c0,1.299 0.125,2.591 0.3819,3.862c0.25,1.277 0.625,2.513 1.125,3.715c0.4931,1.201 1.1042,2.34 1.8264,3.423c0.7222,1.077 1.5417,2.077 2.4653,3c0.9166,0.917 1.9166,1.737 2.993,2.459c1.0834,0.722 2.2223,1.333 3.4236,1.826c1.2014,0.5 2.4375,0.875 3.7153,1.132c1.2709,0.25 2.5625,0.375 3.8611,0.375c1.2986,0 2.5834,-0.125 3.8611,-0.375c1.2709,-0.257 2.5139,-0.632 3.7084,-1.132c1.2014,-0.493 2.3472,-1.104 3.4236,-1.826c1.0833,-0.722 2.0833,-1.542 3,-2.459c0.9167,-0.923 1.743,-1.923 2.4583,-3c0.7222,-1.083 1.3334,-2.222 1.8334,-3.423c0.493,-1.202 0.875,-2.438 1.125,-3.715c0.2569,-1.271 0.3819,-2.563 0.3819,-3.862c0,-1.298 -0.1319,-2.583 -0.3819,-3.861c-0.257,-1.27 -0.632,-2.507 -1.132,-3.708c-0.5,-1.201 -1.1042,-2.34 -1.8264,-3.417c-0.7222,-1.083 -1.5486,-2.083 -2.4653,-3c-0.9166,-0.916 -1.9166,-1.736 -3,-2.458c-1.0763,-0.722 -2.2152,-1.333 -3.4166,-1.833c-1.2014,-0.5 -2.4375,-0.875 -3.7084,-1.125c-1.2777,-0.257 -2.5625,-0.389 -3.8611,-0.389zM41.3263,60.584c-1.0833,0 -2.1597,-0.105 -3.2222,-0.313c-1.0555,-0.215 -2.0903,-0.528 -3.0903,-0.944c-1,-0.41 -1.9514,-0.917 -2.8541,-1.521c-0.8959,-0.604 -1.7292,-1.285 -2.5,-2.049c-0.7639,-0.771 -1.4445,-1.604 -2.0486,-2.5c-0.6042,-0.903 -1.1112,-1.854 -1.5209,-2.854c-0.4166,-1 -0.7291,-2.028 -0.9444,-3.09c-0.2084,-1.063 -0.3125,-2.139 -0.3125,-3.223c0,-1.083 0.1041,-2.152 0.3125,-3.215c0.2153,-1.062 0.5278,-2.097 0.9444,-3.097c0.4097,-1 0.9167,-1.951 1.5209,-2.847c0.6041,-0.903 1.2847,-1.736 2.0486,-2.5c0.7708,-0.764 1.6041,-1.452 2.5,-2.049c0.9027,-0.604 1.8541,-1.111 2.8541,-1.528c1,-0.416 2.0348,-0.729 3.0903,-0.937c1.0625,-0.215 2.1389,-0.32 3.2222,-0.32c1.0834,0 2.1528,0.105 3.2153,0.32c1.0625,0.208 2.0972,0.521 3.0972,0.937c1,0.417 1.9514,0.924 2.8473,1.528c0.9027,0.597 1.7361,1.285 2.5,2.049c0.7638,0.764 1.4513,1.597 2.0555,2.5c0.5972,0.896 1.1042,1.847 1.5208,2.847c0.4167,1 0.7292,2.035 0.9375,3.097c0.2153,1.063 0.3195,2.132 0.3195,3.215c0,1.084 -0.1111,2.16 -0.3195,3.216c-0.2152,1.062 -0.5277,2.097 -0.9444,3.097c-0.4097,1 -0.9236,1.951 -1.5208,2.847c-0.6042,0.903 -1.2848,1.736 -2.0556,2.5c-0.7639,0.764 -1.5972,1.452 -2.493,2.049c-0.9028,0.604 -1.8542,1.111 -2.8542,1.528c-1,0.416 -2.0278,0.729 -3.0903,0.937c-1.0625,0.215 -2.1319,0.32 -3.2153,0.32z" fill="#FE9900"/>
</g>
</g>
</g>
<path id="Vector_113" d="M42.5068,32.653c-0.4722,-0.09 -0.9514,-0.125 -1.4375,-0.104c-0.4861,0.021 -0.9584,0.09 -1.4236,0.215c-0.4723,0.118 -0.9167,0.292 -1.3473,0.514c-0.4305,0.222 -0.8263,0.486 -1.2013,0.799c-0.3681,0.312 -0.7014,0.652 -1,1.041c-0.2917,0.382 -0.5417,0.792 -0.75,1.229c-0.2014,0.438 -0.3612,0.889 -0.4653,1.362c-0.1042,0.472 -0.1528,0.951 -0.1528,1.437c0,0.451 0.1597,0.84 0.4792,1.167c0.3264,0.319 0.7152,0.479 1.1666,0.479c0.4584,0 0.8473,-0.16 1.1667,-0.479c0.3264,-0.327 0.4861,-0.716 0.4861,-1.167c0,-0.493 0.1042,-0.958 0.3125,-1.403c0.2083,-0.444 0.5,-0.826 0.882,-1.139c0.375,-0.312 0.7986,-0.534 1.2777,-0.659c0.4723,-0.118 0.9514,-0.132 1.4375,-0.042c0.6667,0.125 1.2361,0.431 1.7223,0.91c0.4791,0.479 0.7847,1.055 0.9166,1.715c0.132,0.701 0.0486,1.375 -0.2569,2.021c-0.3056,0.646 -0.7709,1.146 -1.3959,1.486c-1,0.521 -1.7916,1.257 -2.375,2.222c-0.5833,0.965 -0.875,2.007 -0.875,3.132c0.007,0.451 0.1667,0.826 0.4931,1.139c0.3264,0.312 0.7083,0.458 1.1597,0.444c0.4584,-0.02 0.8542,-0.194 1.1736,-0.527c0.3195,-0.334 0.4792,-0.736 0.4723,-1.195c0.0277,-0.5 0.1736,-0.958 0.4513,-1.375c0.2709,-0.416 0.632,-0.736 1.0834,-0.951c0.5972,-0.327 1.1319,-0.736 1.6041,-1.229c0.4653,-0.493 0.8542,-1.049 1.1528,-1.66c0.2986,-0.611 0.4931,-1.257 0.5972,-1.931c0.0973,-0.673 0.0903,-1.347 -0.0208,-2.02c-0.1042,-0.674 -0.3125,-1.313 -0.625,-1.924c-0.3055,-0.604 -0.7014,-1.153 -1.1805,-1.639c-0.4723,-0.486 -1.0139,-0.889 -1.6181,-1.208c-0.6042,-0.32 -1.2361,-0.542 -1.9097,-0.66z" fill="#FE9900"/>
<path id="Vector_114" d="M41.361,52.34h-0.0208c-0.2917,0 -0.5695,0.077 -0.8264,0.223c-0.257,0.152 -0.4584,0.354 -0.6042,0.611c-0.1458,0.257 -0.2153,0.527 -0.2153,0.826c0,0.299 0.0764,0.569 0.2223,0.826c0.1458,0.257 0.3472,0.459 0.6041,0.605c0.257,0.152 0.5347,0.222 0.8264,0.222c0.2986,0 0.5764,-0.07 0.8333,-0.222c0.25,-0.146 0.4584,-0.348 0.6042,-0.605c0.1458,-0.257 0.2222,-0.527 0.2222,-0.826c0,-0.299 -0.0694,-0.569 -0.2222,-0.826c-0.1458,-0.257 -0.3472,-0.459 -0.5972,-0.611c-0.257,-0.146 -0.5347,-0.223 -0.8264,-0.223z" fill="#FE9900"/>
<g id="Group_132">
<g id="Clip path group_77">
<mask id="mask76_6578_3234" style="mask-type:luminance" maskUnits="userSpaceOnUse" x="41" y="594" width="12" height="8">
<g id="7ba7e39044">
<path id="Vector_115" d="M52.2223 594H41.5557V601.111H52.2223V594Z" fill="white"/>
</g>
</mask>
<g mask="url(#mask76_6578_3234)">
<g id="Group_133">
<g id="Clip path group_78">
<mask id="mask77_6578_3234" style="mask-type:luminance" maskUnits="userSpaceOnUse" x="42" y="595" width="11" height="5">
<g id="0cd6685cac">
<path id="Vector_116" d="M42.6943 595.778H52.0832V599.333H42.6943V595.778Z" fill="white"/>
</g>
</mask>
<g mask="url(#mask77_6578_3234)">
<g id="Group_134">
<g id="Group_135">
<g id="Group_136">
<g id="Group_137">
<path id="Vector_117" d="M39.0631,68.404h-0.2778l-0.2222,-0.611h-0.9444l-0.2223,0.611h-0.2777l0.8055,-2.25h0.3611zM38.0631,66.404l-0.3889,1.166h0.8333l-0.3888,-1.166z" fill="#737373"/>
</g>
</g>
<g id="Group_138">
<g id="Group_139">
<path id="Vector_118" d="M40.3026,66.154c0.1667,0 0.3056,0.028 0.4167,0.083c0.1111,0.056 0.1944,0.139 0.25,0.25c0.0555,0.097 0.0833,0.208 0.0833,0.333c0,0.153 -0.0278,0.278 -0.0833,0.389c-0.0556,0.098 -0.1389,0.167 -0.25,0.223c-0.1111,0.055 -0.25,0.083 -0.4167,0.083h-0.5278v0.889h-0.2777v-2.25zM40.3026,67.293c0.3125,0 0.4722,-0.153 0.4722,-0.473c0,-0.291 -0.1597,-0.444 -0.4722,-0.444h-0.5278v0.917z" fill="#737373"/>
</g>
</g>
<g id="Group_140">
<g id="Group_141">
<path id="Vector_119" d="M41.5615,68.404v-2.25h0.8611c0.1459,0 0.2639,0.021 0.3611,0.055c0.0903,0.042 0.1528,0.105 0.1945,0.195c0.0555,0.076 0.0833,0.166 0.0833,0.278c0,0.111 -0.0278,0.208 -0.0833,0.277c-0.0417,0.077 -0.1111,0.139 -0.2222,0.195v0.028c0.1458,0.041 0.2569,0.104 0.3333,0.194c0.0903,0.097 0.1389,0.215 0.1389,0.361c0,0.222 -0.0695,0.389 -0.1945,0.5c-0.1111,0.111 -0.2986,0.167 -0.5555,0.167zM42.4226,67.098c0.1111,0 0.2014,-0.028 0.2778,-0.083c0.0695,-0.07 0.1111,-0.167 0.1111,-0.278c0,-0.125 -0.0416,-0.222 -0.1111,-0.278c-0.0555,-0.055 -0.1528,-0.083 -0.2778,-0.083h-0.5833v0.722zM42.4782,68.182c0.3125,0 0.4722,-0.146 0.4722,-0.445c0,-0.278 -0.1597,-0.417 -0.4722,-0.417h-0.6389v0.862z" fill="#737373"/>
</g>
</g>
<g id="Group_142">
<g id="Group_143">
<path id="Vector_120" d="M44.6577,68.431c-0.2084,0 -0.382,-0.041 -0.5278,-0.138c-0.1528,-0.091 -0.2709,-0.223 -0.3611,-0.389c-0.0972,-0.167 -0.1389,-0.375 -0.1389,-0.639c0,-0.236 0.0417,-0.445 0.1389,-0.611c0.0902,-0.181 0.2083,-0.32 0.3611,-0.417c0.1458,-0.09 0.3194,-0.139 0.5278,-0.139c0.2013,0 0.375,0.049 0.5277,0.139c0.1459,0.076 0.25,0.194 0.3056,0.361l-0.1667,0.111h-0.0555c-0.0556,-0.125 -0.1389,-0.222 -0.25,-0.278c-0.0973,-0.055 -0.2153,-0.083 -0.3611,-0.083c-0.1528,0 -0.2778,0.042 -0.3889,0.111c-0.1111,0.056 -0.2084,0.16 -0.2778,0.306c-0.0556,0.132 -0.0833,0.298 -0.0833,0.5c0,0.222 0.0277,0.41 0.0833,0.555c0.0694,0.132 0.1667,0.236 0.2778,0.306c0.1111,0.055 0.2361,0.083 0.3889,0.083c0.1666,0 0.2916,-0.034 0.3888,-0.111c0.1112,-0.069 0.1945,-0.194 0.25,-0.361h0.0278l0.1945,0.083c-0.0556,0.209 -0.1598,0.361 -0.3056,0.473c-0.1528,0.097 -0.3333,0.138 -0.5555,0.138z" fill="#737373"/>
</g>
</g>
</g>
</g>
</g>
</g>
</g>
</g>
</g>
</g>
</g></svg>