<svg viewBox="0 0 80 80" fill="none" xmlns="http://www.w3.org/2000/svg" xmlns:xlink="http://www.w3.org/1999/xlink" x="0" y="0"><defs><mask id="mask62_6578_3234" style="mask-type:luminance" maskUnits="userSpaceOnUse" x="13" y="16" width="57" height="56">
<g id="a0f406e747">
<path id="Vector_91" d="M13.4307,16.201h55.8055v55.799h-55.8055z" fill="white"/>
</g>
</mask><mask id="mask63_6578_3234" style="mask-type:luminance" maskUnits="userSpaceOnUse" x="13" y="16" width="57" height="56">
<g id="4c9c645f6a">
<path id="Vector_92" d="M41.3334,16.201c-15.4097,0 -27.9027,12.493 -27.9027,27.896c0,15.41 12.493,27.903 27.9027,27.903c15.4098,0 27.9028,-12.493 27.9028,-27.903c0,-15.403 -12.493,-27.896 -27.9028,-27.896z" fill="white"/>
</g>
</mask><mask id="mask64_6578_3234" style="mask-type:luminance" maskUnits="userSpaceOnUse" x="12" y="16" width="58" height="57">
<g id="b9a5cfcbe9">
<path id="Vector_93" d="M69.3332,16h-56.8889v56.889h56.8889z" fill="white"/>
</g>
</mask><mask id="mask65_6578_3234" style="mask-type:luminance" maskUnits="userSpaceOnUse" x="13" y="16" width="57" height="56">
<g id="30717f00f5">
<path id="Vector_94" d="M13.4307,16.201h55.8055v55.799h-55.8055z" fill="white"/>
</g>
</mask><mask id="mask66_6578_3234" style="mask-type:luminance" maskUnits="userSpaceOnUse" x="13" y="16" width="57" height="56">
<g id="8fab1c0a02">
<path id="Vector_95" d="M41.3334,16.201c-15.4097,0 -27.9027,12.493 -27.9027,27.896c0,15.41 12.493,27.903 27.9027,27.903c15.4098,0 27.9028,-12.493 27.9028,-27.903c0,-15.403 -12.493,-27.896 -27.9028,-27.896z" fill="white"/>
</g>
</mask><mask id="mask67_6578_3234" style="mask-type:luminance" maskUnits="userSpaceOnUse" x="22" y="25" width="39" height="39">
<g id="89d3fdbb57">
<path id="Vector_97" d="M22.3125,25.028h38.1319v38.666h-38.1319z" fill="white"/>
</g>
</mask><mask id="mask68_6578_3234" style="mask-type:luminance" maskUnits="userSpaceOnUse" x="35" y="64" width="12" height="8">
<g id="046be4f7e9">
<path id="Vector_99" d="M46.2223,64h-10.6666v7.111h10.6666z" fill="white"/>
</g>
</mask><mask id="mask69_6578_3234" style="mask-type:luminance" maskUnits="userSpaceOnUse" x="36" y="65" width="11" height="5">
<g id="b24bfde58d">
<path id="Vector_100" d="M36.6943,65.778h9.3889v3.555h-9.3889z" fill="white"/>
</g>
</mask></defs><g id="JOURNAL 1">
<g id="Clip path group_63">
<mask id="mask62_6578_3234" style="mask-type:luminance" maskUnits="userSpaceOnUse" x="19" y="418" width="57" height="56">
<g id="a0f406e747">
<path id="Vector_91" d="M19.4307 418.201H75.2362V474H19.4307V418.201Z" fill="white"/>
</g>
</mask>
<g mask="url(#mask62_6578_3234)">
<g id="Group_106">
<g id="Clip path group_64">
<mask id="mask63_6578_3234" style="mask-type:luminance" maskUnits="userSpaceOnUse" x="19" y="418" width="57" height="56">
<g id="4c9c645f6a">
<path id="Vector_92" d="M47.3334 418.201C31.9237 418.201 19.4307 430.694 19.4307 446.097C19.4307 461.507 31.9237 474 47.3334 474C62.7432 474 75.2362 461.507 75.2362 446.097C75.2362 430.694 62.7432 418.201 47.3334 418.201Z" fill="white"/>
</g>
</mask>
<g mask="url(#mask63_6578_3234)">
<g id="Group_107">
<g id="Group_108">
<g id="Clip path group_65">
<mask id="mask64_6578_3234" style="mask-type:luminance" maskUnits="userSpaceOnUse" x="18" y="418" width="58" height="57">
<g id="b9a5cfcbe9">
<path id="Vector_93" d="M75.3332 418H18.4443V474.889H75.3332V418Z" fill="white"/>
</g>
</mask>
<g mask="url(#mask64_6578_3234)">
<g id="Group_109">
<g id="Clip path group_66">
<mask id="mask65_6578_3234" style="mask-type:luminance" maskUnits="userSpaceOnUse" x="19" y="418" width="57" height="56">
<g id="30717f00f5">
<path id="Vector_94" d="M19.4307 418.201H75.2362V474H19.4307V418.201Z" fill="white"/>
</g>
</mask>
<g mask="url(#mask65_6578_3234)">
<g id="Group_110">
<g id="Clip path group_67">
<mask id="mask66_6578_3234" style="mask-type:luminance" maskUnits="userSpaceOnUse" x="19" y="418" width="57" height="56">
<g id="8fab1c0a02">
<path id="Vector_95" d="M47.3334 418.201C31.9237 418.201 19.4307 430.694 19.4307 446.097C19.4307 461.507 31.9237 474 47.3334 474C62.7432 474 75.2362 461.507 75.2362 446.097C75.2362 430.694 62.7432 418.201 47.3334 418.201Z" fill="white"/>
</g>
</mask>
<g mask="url(#mask66_6578_3234)">
<g id="Group_111">
<path id="Vector_96" d="M13.4307,16.201h55.8055v55.799h-55.8055z" fill="#122F8A"/>
</g>
</g>
</g>
</g>
</g>
</g>
</g>
</g>
</g>
</g>
</g>
</g>
</g>
</g>
</g>
</g>
<g id="Clip path group_68">
<mask id="mask67_6578_3234" style="mask-type:luminance" maskUnits="userSpaceOnUse" x="28" y="427" width="39" height="39">
<g id="89d3fdbb57">
<path id="Vector_97" d="M28.3125 427.028H66.4444V465.694H28.3125V427.028Z" fill="white"/>
</g>
</mask>
<g mask="url(#mask67_6578_3234)">
<g id="Group_112">
<path id="Vector_98" fill-rule="evenodd" clip-rule="evenodd" d="M28.4726,25.028h24.1111c1.1736,0 2.132,0.958 2.132,2.132l-0.007,0.34l-1.0278,1.785c-0.0416,0.069 -0.1527,0.041 -0.1527,-0.042v-2.083c0,-0.521 -0.4237,-0.945 -0.9445,-0.945h-24.1111c-0.5139,0 -0.9444,0.424 -0.9444,0.945v6.076c0,0.042 0.0347,0.083 0.0833,0.083h0.8889c0.6805,0 1.2361,0.549 1.2361,1.23v1.639c0,0.68 -0.5556,1.229 -1.2361,1.229h-0.8889c-0.0486,0 -0.0833,0.041 -0.0833,0.083v4.458c0,0.042 0.0347,0.077 0.0833,0.077h0.8889c0.6805,0 1.2361,0.555 1.2361,1.236v1.639c0,0.68 -0.5556,1.229 -1.2361,1.229h-0.8889c-0.0486,0 -0.0833,0.035 -0.0833,0.083v4.459c0,0.041 0.0347,0.076 0.0833,0.076h0.8889c0.6805,0 1.2361,0.556 1.2361,1.229v1.646c0,0.674 -0.5556,1.229 -1.2361,1.229h-0.8889c-0.0486,0 -0.0833,0.035 -0.0833,0.083v6.077c0,0.514 0.4305,0.944 0.9444,0.944h24.1111c0.5208,0 0.9445,-0.43 0.9445,-0.944v-19.882c0,-0.014 0.0069,-0.028 0.0138,-0.042l1.0278,-1.784c0.0417,-0.07 0.1459,-0.042 0.1459,0.041v21.667c0,1.173 -0.9584,2.132 -2.132,2.132h-24.1111c-1.1736,0 -2.1319,-0.959 -2.1319,-2.132v-6.077c0,-0.048 -0.0348,-0.083 -0.0764,-0.083h-2.7153c-0.6806,0 -1.2292,-0.555 -1.2292,-1.229v-1.646c0,-0.673 0.5486,-1.229 1.2292,-1.229h2.7153c0.0416,0 0.0764,-0.035 0.0764,-0.076v-4.459c0,-0.048 -0.0348,-0.083 -0.0764,-0.083h-2.7153c-0.6806,0 -1.2292,-0.549 -1.2292,-1.229v-1.639c0,-0.681 0.5486,-1.236 1.2292,-1.236h2.7153c0.0416,0 0.0764,-0.035 0.0764,-0.077v-4.458c0,-0.042 -0.0348,-0.083 -0.0764,-0.083h-2.7153c-0.6806,0 -1.2292,-0.549 -1.2292,-1.229v-1.639c0,-0.681 0.5486,-1.23 1.2292,-1.23h2.7153c0.0416,0 0.0764,-0.041 0.0764,-0.083v-6.076c0,-1.174 0.9583,-2.132 2.1319,-2.132zM57.4726,25.243c-0.0347,-0.021 -0.0833,-0.007 -0.1111,0.035l-11.6181,20.125l-0.2639,3.729c-0.0069,0.062 0.0695,0.104 0.125,0.069l3.0903,-2.09l11.625,-20.132c0.0209,-0.035 0.007,-0.083 -0.0278,-0.104zM34.1184,35.965h12.882c0.3264,0 0.5972,-0.271 0.5972,-0.597c0,-0.326 -0.2708,-0.597 -0.5972,-0.597h-12.882c-0.3264,0 -0.5972,0.271 -0.5972,0.597c0,0.326 0.2708,0.597 0.5972,0.597zM34.1184,53.403h12.882c0.3264,0 0.5972,-0.264 0.5972,-0.59c0,-0.334 -0.2708,-0.598 -0.5972,-0.598h-12.882c-0.3264,0 -0.5972,0.264 -0.5972,0.598c0,0.326 0.2708,0.59 0.5972,0.59zM34.1184,44.681h8.632c0.3264,0 0.5903,-0.264 0.5903,-0.591c0,-0.326 -0.2639,-0.597 -0.5903,-0.597h-8.632c-0.3264,0 -0.5972,0.271 -0.5972,0.597c0,0.327 0.2708,0.591 0.5972,0.591z" fill="#FE9900"/>
</g>
</g>
</g>
<g id="Group_113">
<g id="Clip path group_69">
<mask id="mask68_6578_3234" style="mask-type:luminance" maskUnits="userSpaceOnUse" x="41" y="466" width="12" height="8">
<g id="046be4f7e9">
<path id="Vector_99" d="M52.2223 466H41.5557V473.111H52.2223V466Z" fill="white"/>
</g>
</mask>
<g mask="url(#mask68_6578_3234)">
<g id="Group_114">
<g id="Clip path group_70">
<mask id="mask69_6578_3234" style="mask-type:luminance" maskUnits="userSpaceOnUse" x="42" y="467" width="11" height="5">
<g id="b24bfde58d">
<path id="Vector_100" d="M42.6943 467.778H52.0832V471.333H42.6943V467.778Z" fill="white"/>
</g>
</mask>
<g mask="url(#mask69_6578_3234)">
<g id="Group_115">
<g id="Group_116">
<g id="Group_117">
<g id="Group_118">
<path id="Vector_101" d="M39.0631,68.404h-0.2778l-0.2222,-0.611h-0.9444l-0.2223,0.611h-0.2777l0.8055,-2.25h0.3611zM38.0631,66.404l-0.3889,1.166h0.8333l-0.3888,-1.166z" fill="#737373"/>
</g>
</g>
<g id="Group_119">
<g id="Group_120">
<path id="Vector_102" d="M40.3026,66.154c0.1667,0 0.3056,0.028 0.4167,0.083c0.1111,0.056 0.1944,0.139 0.25,0.25c0.0555,0.097 0.0833,0.208 0.0833,0.333c0,0.153 -0.0278,0.278 -0.0833,0.389c-0.0556,0.098 -0.1389,0.167 -0.25,0.223c-0.1111,0.055 -0.25,0.083 -0.4167,0.083h-0.5278v0.889h-0.2777v-2.25zM40.3026,67.293c0.3125,0 0.4722,-0.153 0.4722,-0.473c0,-0.291 -0.1597,-0.444 -0.4722,-0.444h-0.5278v0.917z" fill="#737373"/>
</g>
</g>
<g id="Group_121">
<g id="Group_122">
<path id="Vector_103" d="M41.5615,68.404v-2.25h0.8611c0.1459,0 0.2639,0.021 0.3611,0.055c0.0903,0.042 0.1528,0.105 0.1945,0.195c0.0555,0.076 0.0833,0.166 0.0833,0.278c0,0.111 -0.0278,0.208 -0.0833,0.277c-0.0417,0.077 -0.1111,0.139 -0.2222,0.195v0.028c0.1458,0.041 0.2569,0.104 0.3333,0.194c0.0903,0.097 0.1389,0.215 0.1389,0.361c0,0.222 -0.0695,0.389 -0.1945,0.5c-0.1111,0.111 -0.2986,0.167 -0.5555,0.167zM42.4226,67.098c0.1111,0 0.2014,-0.028 0.2778,-0.083c0.0695,-0.07 0.1111,-0.167 0.1111,-0.278c0,-0.125 -0.0416,-0.222 -0.1111,-0.278c-0.0555,-0.055 -0.1528,-0.083 -0.2778,-0.083h-0.5833v0.722zM42.4782,68.182c0.3125,0 0.4722,-0.146 0.4722,-0.445c0,-0.278 -0.1597,-0.417 -0.4722,-0.417h-0.6389v0.862z" fill="#737373"/>
</g>
</g>
<g id="Group_123">
<g id="Group_124">
<path id="Vector_104" d="M44.6577,68.431c-0.2084,0 -0.382,-0.041 -0.5278,-0.138c-0.1528,-0.091 -0.2709,-0.223 -0.3611,-0.389c-0.0972,-0.167 -0.1389,-0.375 -0.1389,-0.639c0,-0.236 0.0417,-0.445 0.1389,-0.611c0.0902,-0.181 0.2083,-0.32 0.3611,-0.417c0.1458,-0.09 0.3194,-0.139 0.5278,-0.139c0.2013,0 0.375,0.049 0.5277,0.139c0.1459,0.076 0.25,0.194 0.3056,0.361l-0.1667,0.111h-0.0555c-0.0556,-0.125 -0.1389,-0.222 -0.25,-0.278c-0.0973,-0.055 -0.2153,-0.083 -0.3611,-0.083c-0.1528,0 -0.2778,0.042 -0.3889,0.111c-0.1111,0.056 -0.2084,0.16 -0.2778,0.306c-0.0556,0.132 -0.0833,0.298 -0.0833,0.5c0,0.222 0.0277,0.41 0.0833,0.555c0.0694,0.132 0.1667,0.236 0.2778,0.306c0.1111,0.055 0.2361,0.083 0.3889,0.083c0.1666,0 0.2916,-0.034 0.3888,-0.111c0.1112,-0.069 0.1945,-0.194 0.25,-0.361h0.0278l0.1945,0.083c-0.0556,0.209 -0.1598,0.361 -0.3056,0.473c-0.1528,0.097 -0.3333,0.138 -0.5555,0.138z" fill="#737373"/>
</g>
</g>
</g>
</g>
</g>
</g>
</g>
</g>
</g>
</g>
</g></svg>