<svg viewBox="0 0 38 38" fill="none" xmlns="http://www.w3.org/2000/svg" xmlns:xlink="http://www.w3.org/1999/xlink" x="0" y="0"><g id="Icon">
<path d="M19.0002,23.75c2.6233,0 4.75,-2.126 4.75,-4.75c0,-2.623 -2.1267,-4.75 -4.75,-4.75c-2.6234,0 -4.75,2.127 -4.75,4.75c0,2.624 2.1266,4.75 4.75,4.75z" stroke="#FE9900" stroke-width="4" stroke-linecap="round" stroke-linejoin="round"/>
<path d="M30.7168,23.75c-0.2107,0.478 -0.2736,1.007 -0.1805,1.521c0.0932,0.514 0.338,0.988 0.703,1.361l0.095,0.095c0.2945,0.294 0.528,0.643 0.6874,1.028c0.1593,0.384 0.2414,0.796 0.2414,1.212c0,0.416 -0.0821,0.828 -0.2414,1.213c-0.1594,0.384 -0.3929,0.734 -0.6874,1.028c-0.2941,0.294 -0.6433,0.528 -1.0277,0.687c-0.3845,0.159 -0.7965,0.241 -1.2127,0.241c-0.4161,0 -0.8282,-0.082 -1.2126,-0.241c-0.3845,-0.159 -0.7337,-0.393 -1.0278,-0.687l-0.095,-0.095c-0.3732,-0.365 -0.8471,-0.61 -1.3607,-0.703c-0.5137,-0.093 -1.0434,-0.031 -1.521,0.18c-0.4683,0.201 -0.8677,0.534 -1.149,0.959c-0.2813,0.425 -0.4323,0.922 -0.4343,1.432v0.269c0,0.84 -0.3336,1.645 -0.9275,2.239c-0.5939,0.594 -1.3993,0.928 -2.2392,0.928c-0.8398,0 -1.6453,-0.334 -2.2391,-0.928c-0.5939,-0.594 -0.9275,-1.399 -0.9275,-2.239v-0.142c-0.0123,-0.524 -0.1819,-1.033 -0.4869,-1.459c-0.305,-0.426 -0.7311,-0.751 -1.2231,-0.932c-0.4776,-0.211 -1.0073,-0.274 -1.521,-0.181c-0.5136,0.093 -0.9875,0.338 -1.3607,0.703l-0.095,0.095c-0.2941,0.295 -0.6433,0.528 -1.0278,0.688c-0.3844,0.159 -0.7965,0.241 -1.2126,0.241c-0.4162,0 -0.8282,-0.082 -1.2127,-0.241c-0.3844,-0.16 -0.7336,-0.393 -1.0277,-0.688c-0.2945,-0.294 -0.528,-0.643 -0.6874,-1.027c-0.1594,-0.385 -0.2414,-0.797 -0.2414,-1.213c0,-0.416 0.082,-0.828 0.2414,-1.213c0.1594,-0.384 0.3929,-0.733 0.6874,-1.028l0.095,-0.095c0.365,-0.373 0.6098,-0.847 0.703,-1.36c0.0931,-0.514 0.0302,-1.044 -0.1805,-1.521c-0.2007,-0.468 -0.534,-0.868 -0.9588,-1.149c-0.4248,-0.282 -0.9226,-0.432 -1.4321,-0.435h-0.2691c-0.8399,0 -1.6453,-0.333 -2.2392,-0.927c-0.5939,-0.594 -0.9275,-1.399 -0.9275,-2.239c0,-0.84 0.3336,-1.645 0.9275,-2.239c0.5939,-0.594 1.3993,-0.928 2.2392,-0.928h0.1425c0.524,-0.012 1.0323,-0.182 1.4587,-0.487c0.4264,-0.305 0.7511,-0.731 0.9321,-1.223c0.2108,-0.477 0.2736,-1.007 0.1805,-1.521c-0.0931,-0.513 -0.338,-0.987 -0.703,-1.361l-0.095,-0.095c-0.2944,-0.294 -0.528,-0.643 -0.6874,-1.027c-0.1593,-0.385 -0.2413,-0.797 -0.2413,-1.213c0,-0.416 0.082,-0.828 0.2413,-1.213c0.1594,-0.384 0.393,-0.733 0.6874,-1.027c0.2941,-0.295 0.6433,-0.528 1.0278,-0.688c0.3844,-0.159 0.7965,-0.241 1.2126,-0.241c0.4162,0 0.8282,0.082 1.2127,0.241c0.3844,0.16 0.7336,0.393 1.0277,0.688l0.095,0.095c0.3732,0.365 0.8471,0.61 1.3608,0.703c0.5136,0.093 1.0433,0.03 1.5209,-0.181h0.1267c0.4683,-0.201 0.8677,-0.534 1.149,-0.959c0.2813,-0.424 0.4323,-0.922 0.4343,-1.432v-0.269c0,-0.84 0.3336,-1.645 0.9275,-2.239c0.5939,-0.594 1.3993,-0.928 2.2392,-0.928c0.8398,0 1.6453,0.334 2.2391,0.928c0.5939,0.594 0.9275,1.399 0.9275,2.239v0.143c0.0021,0.509 0.153,1.007 0.4343,1.432c0.2814,0.425 0.6808,0.758 1.1491,0.958c0.4775,0.211 1.0073,0.274 1.5209,0.181c0.5136,-0.093 0.9876,-0.338 1.3607,-0.703l0.095,-0.095c0.2941,-0.294 0.6434,-0.528 1.0278,-0.687c0.3844,-0.16 0.7965,-0.242 1.2126,-0.242c0.4162,0 0.8283,0.082 1.2127,0.242c0.3844,0.159 0.7337,0.393 1.0278,0.687c0.2944,0.294 0.528,0.643 0.6873,1.028c0.1594,0.384 0.2414,0.796 0.2414,1.212c0,0.417 -0.082,0.829 -0.2414,1.213c-0.1593,0.384 -0.3929,0.734 -0.6873,1.028l-0.095,0.095c-0.3651,0.373 -0.6099,0.847 -0.703,1.361c-0.0932,0.513 -0.0303,1.043 0.1805,1.52v0.127c0.2007,0.468 0.5339,0.868 0.9587,1.149c0.4248,0.281 0.9226,0.432 1.4321,0.434h0.2692c0.8398,0 1.6453,0.334 2.2391,0.928c0.5939,0.594 0.9275,1.399 0.9275,2.239c0,0.84 -0.3336,1.645 -0.9275,2.239c-0.5938,0.594 -1.3993,0.928 -2.2391,0.928h-0.1425c-0.5095,0.002 -1.0073,0.153 -1.4321,0.434c-0.4248,0.281 -0.7581,0.681 -0.9588,1.149z" stroke="#FE9900" stroke-width="4" stroke-linecap="round" stroke-linejoin="round"/>
</g></svg>