<svg viewBox="0 0 139 13" fill="none" xmlns="http://www.w3.org/2000/svg" xmlns:xlink="http://www.w3.org/1999/xlink" x="0" y="0"><g id="Levels">
<path id="Cellular Connection" fill-rule="evenodd" clip-rule="evenodd" d="M44.865,1.5329c0,-0.633 -0.478,-1.1462 -1.067,-1.1462h-1.066c-0.589,0 -1.067,0.5132 -1.067,1.1462v9.934c0,0.633 0.478,1.1462 1.067,1.1462h1.066c0.589,0 1.067,-0.5132 1.067,-1.1462zM37.431,2.832h1.067c0.589,0 1.066,0.5255 1.066,1.1737v7.4337c0,0.6482 -0.477,1.1737 -1.066,1.1737h-1.067c-0.589,0 -1.067,-0.5255 -1.067,-1.1737v-7.4337c0,-0.6482 0.478,-1.1737 1.067,-1.1737zM33.099,5.481h-1.067c-0.589,0 -1.066,0.5322 -1.066,1.1887v4.7547c0,0.6565 0.477,1.1887 1.066,1.1887h1.067c0.589,0 1.067,-0.5322 1.067,-1.1887v-4.7547c0,-0.6565 -0.478,-1.1887 -1.067,-1.1887zM27.798,7.9263h-1.066c-0.589,0 -1.067,0.5246 -1.067,1.1717v2.3434c0,0.6471 0.478,1.1717 1.067,1.1717h1.066c0.589,0 1.067,-0.5246 1.067,-1.1717v-2.3434c0,-0.6471 -0.478,-1.1717 -1.067,-1.1717z" fill="black"/>
<path id="Wifi" fill-rule="evenodd" clip-rule="evenodd" d="M60.437,2.8022c2.487,0.0001 4.879,0.9222 6.681,2.5757c0.136,0.1276 0.353,0.126 0.487,-0.0036l1.297,-1.2635c0.068,-0.0658 0.105,-0.1548 0.105,-0.2475c-0.001,-0.0927 -0.039,-0.1813 -0.108,-0.2463c-4.731,-4.3747 -12.195,-4.3747 -16.926,0c-0.068,0.0649 -0.107,0.1535 -0.108,0.2462c0,0.0927 0.037,0.1818 0.105,0.2476l1.298,1.2635c0.133,0.1298 0.351,0.1314 0.486,0.0036c1.803,-1.6536 4.195,-2.5757 6.683,-2.5757zM60.433,7.0225c1.358,-0.0001 2.666,0.5117 3.673,1.4358c0.136,0.1311 0.35,0.1283 0.483,-0.0064l1.287,-1.3193c0.068,-0.0692 0.105,-0.1631 0.104,-0.2607c-0.001,-0.0975 -0.04,-0.1906 -0.109,-0.2584c-3.064,-2.8908 -7.809,-2.8908 -10.873,0c-0.069,0.0678 -0.108,0.1609 -0.109,0.2585c-0.001,0.0976 0.037,0.1915 0.104,0.2606l1.287,1.3193c0.133,0.1347 0.347,0.1375 0.483,0.0064c1.006,-0.9235 2.314,-1.4352 3.67,-1.4358zM62.958,9.816c0.002,0.1054 -0.036,0.207 -0.103,0.2808l-2.176,2.4547c-0.064,0.0721 -0.151,0.1127 -0.242,0.1127c-0.091,0 -0.178,-0.0406 -0.242,-0.1127l-2.177,-2.4547c-0.067,-0.0739 -0.104,-0.1755 -0.102,-0.2808c0.002,-0.1054 0.043,-0.2052 0.113,-0.2758c1.39,-1.3139 3.426,-1.3139 4.816,0c0.07,0.0707 0.111,0.1705 0.113,0.2758z" fill="black"/>
<g id="Battery">
<rect id="Border" opacity="0.35" x="76.507" y="0.5" width="24" height="12" rx="3.8" stroke="black"/>
<path id="Cap" opacity="0.4" d="M102.007,4.7812v4.0755c0.805,-0.3451 1.328,-1.1481 1.328,-2.0377c0,-0.8896 -0.523,-1.6926 -1.328,-2.0378z" fill="black"/>
<rect id="Capacity" x="78.007" y="2" width="21" height="9" rx="2.5" fill="black"/>
</g>
</g></svg>