<svg viewBox="0 0 82 82" fill="none" xmlns="http://www.w3.org/2000/svg" xmlns:xlink="http://www.w3.org/1999/xlink" x="0" y="0"><defs><mask id="mask141_6578_3234" style="mask-type:luminance" maskUnits="userSpaceOnUse" x="13" y="16" width="57" height="58">
<g id="dc11481db2">
<path id="Vector_249" d="M13.7661,16.606h55.834v57.351h-55.834z" fill="white"/>
</g>
</mask><mask id="mask142_6578_3234" style="mask-type:luminance" maskUnits="userSpaceOnUse" x="13" y="16" width="57" height="58">
<g id="e7ed70570f">
<path id="Vector_250" d="M41.6831,16.606c-15.4177,0 -27.917,12.806 -27.917,28.594c0,15.795 12.4993,28.6 27.917,28.6c15.4177,0 27.917,-12.805 27.917,-28.6c0,-15.788 -12.4993,-28.594 -27.917,-28.594z" fill="white"/>
</g>
</mask><mask id="mask143_6578_3234" style="mask-type:luminance" maskUnits="userSpaceOnUse" x="12" y="16" width="60" height="59">
<g id="146c432623">
<path id="Vector_251" d="M71.0665,16.4h-58.3111v58.311h58.3111z" fill="white"/>
</g>
</mask><mask id="mask144_6578_3234" style="mask-type:luminance" maskUnits="userSpaceOnUse" x="13" y="16" width="57" height="58">
<g id="afad54e4e1">
<path id="Vector_252" d="M13.7661,16.606h55.834v57.301h-55.834z" fill="white"/>
</g>
</mask><mask id="mask145_6578_3234" style="mask-type:luminance" maskUnits="userSpaceOnUse" x="13" y="16" width="57" height="58">
<g id="3e6624af84">
<path id="Vector_253" d="M41.6831,16.606c-15.4177,0 -27.917,12.806 -27.917,28.594c0,15.795 12.4993,28.6 27.917,28.6c15.4177,0 27.917,-12.805 27.917,-28.6c0,-15.788 -12.4993,-28.594 -27.917,-28.594z" fill="white"/>
</g>
</mask><mask id="mask146_6578_3234" style="mask-type:luminance" maskUnits="userSpaceOnUse" x="21" y="26" width="38" height="43">
<g id="c3bf2e949f">
<path id="Vector_255" d="M21.2402,26.216h36.9v42.366h-36.9z" fill="white"/>
</g>
</mask><mask id="mask147_6578_3234" style="mask-type:luminance" maskUnits="userSpaceOnUse" x="52" y="32" width="16" height="16">
<g id="18a870afe3">
<path id="Vector_257" d="M52.2749,32.629h15.0333v14.749h-15.0333z" fill="white"/>
</g>
</mask><mask id="mask148_6578_3234" style="mask-type:luminance" maskUnits="userSpaceOnUse" x="20" y="47" width="13" height="14">
<g id="a1b26e952c">
<path id="Vector_260" d="M32.8,47.378h-12.7556v12.755h12.7556z" fill="white"/>
</g>
</mask><mask id="mask149_6578_3234" style="mask-type:luminance" maskUnits="userSpaceOnUse" x="20" y="49" width="13" height="10">
<g id="805a297f5a">
<path id="Vector_261" d="M20.9912,49.2h11.3747v9.111h-11.3747z" fill="white"/>
</g>
</mask></defs><g id="stock2 (1) 1">
<g id="Clip path group_141">
<mask id="mask141_6578_3234" style="mask-type:luminance" maskUnits="userSpaceOnUse" x="21" y="352" width="57" height="58">
<g id="dc11481db2">
<path id="Vector_249" d="M21.7661 352.606H77.6001V409.957H21.7661V352.606Z" fill="white"/>
</g>
</mask>
<g mask="url(#mask141_6578_3234)">
<g id="Group_278">
<g id="Clip path group_142">
<mask id="mask142_6578_3234" style="mask-type:luminance" maskUnits="userSpaceOnUse" x="21" y="352" width="57" height="58">
<g id="e7ed70570f">
<path id="Vector_250" d="M49.6831 352.606C34.2654 352.606 21.7661 365.412 21.7661 381.2C21.7661 396.995 34.2654 409.8 49.6831 409.8C65.1008 409.8 77.6001 396.995 77.6001 381.2C77.6001 365.412 65.1008 352.606 49.6831 352.606Z" fill="white"/>
</g>
</mask>
<g mask="url(#mask142_6578_3234)">
<g id="Group_279">
<g id="Group_280">
<g id="Clip path group_143">
<mask id="mask143_6578_3234" style="mask-type:luminance" maskUnits="userSpaceOnUse" x="20" y="352" width="60" height="59">
<g id="146c432623">
<path id="Vector_251" d="M79.0665 352.4H20.7554V410.711H79.0665V352.4Z" fill="white"/>
</g>
</mask>
<g mask="url(#mask143_6578_3234)">
<g id="Group_281">
<g id="Clip path group_144">
<mask id="mask144_6578_3234" style="mask-type:luminance" maskUnits="userSpaceOnUse" x="21" y="352" width="57" height="58">
<g id="afad54e4e1">
<path id="Vector_252" d="M21.7661 352.606H77.6001V409.907H21.7661V352.606Z" fill="white"/>
</g>
</mask>
<g mask="url(#mask144_6578_3234)">
<g id="Group_282">
<g id="Clip path group_145">
<mask id="mask145_6578_3234" style="mask-type:luminance" maskUnits="userSpaceOnUse" x="21" y="352" width="57" height="58">
<g id="3e6624af84">
<path id="Vector_253" d="M49.6831 352.606C34.2654 352.606 21.7661 365.412 21.7661 381.2C21.7661 396.995 34.2654 409.8 49.6831 409.8C65.1008 409.8 77.6001 396.995 77.6001 381.2C77.6001 365.412 65.1008 352.606 49.6831 352.606Z" fill="white"/>
</g>
</mask>
<g mask="url(#mask145_6578_3234)">
<g id="Group_283">
<path id="Vector_254" d="M13.7661,16.606h55.834v57.137h-55.834z" fill="#122F8A"/>
</g>
</g>
</g>
</g>
</g>
</g>
</g>
</g>
</g>
</g>
</g>
</g>
</g>
</g>
</g>
</g>
<g id="Clip path group_146">
<mask id="mask146_6578_3234" style="mask-type:luminance" maskUnits="userSpaceOnUse" x="29" y="362" width="38" height="43">
<g id="c3bf2e949f">
<path id="Vector_255" d="M29.2402 362.216H66.1402V404.582H29.2402V362.216Z" fill="white"/>
</g>
</mask>
<g mask="url(#mask146_6578_3234)">
<g id="Group_284">
<path id="Vector_256" fill-rule="evenodd" clip-rule="evenodd" d="M40.0248,52.923v3.423c0,0.093 0.0498,0.178 0.1281,0.228l2.6835,1.545c0.1708,0.106 0.3915,-0.022 0.3915,-0.228v-4.57l11.0543,-6.385l3.4879,2.015c0.2776,0.163 0.4413,0.441 0.4413,0.761v11.752c0,0.321 -0.1637,0.598 -0.4413,0.762l-10.1788,5.872c-0.2776,0.164 -0.5979,0.164 -0.8755,0l-10.1789,-5.872c-0.2776,-0.164 -0.4413,-0.441 -0.4413,-0.762v-10.634l3.1462,1.815c0.242,0.142 0.5125,0.235 0.783,0.278zM40.822,26.401c-0.2776,-0.157 -0.5979,-0.157 -0.8826,0l-10.1717,5.879c-0.2776,0.157 -0.4414,0.434 -0.4414,0.762v11.745c0,0.327 0.1638,0.598 0.4414,0.761l10.1717,5.88c0.2847,0.156 0.605,0.156 0.8826,0l10.1717,-5.88c0.2847,-0.163 0.4413,-0.434 0.4413,-0.761v-11.745c0,-0.328 -0.1566,-0.605 -0.4413,-0.762l-3.4807,-2.014l-11.0544,6.385v4.569c0,0.2 -0.2206,0.328 -0.3986,0.228l-2.6764,-1.552c-0.0854,-0.042 -0.1352,-0.128 -0.1352,-0.227v-4.869l11.0543,-6.385zM27.917,41.299l-2.7547,1.594v4.876c0,0.093 0.0498,0.178 0.1352,0.228l2.6764,1.544c0.178,0.1 0.3986,-0.021 0.3986,-0.227v-3.161c0.178,0.249 0.4129,0.456 0.6905,0.612l5.6304,3.253v8.371l-1.9575,1.132c-0.2776,0.164 -0.5979,0.164 -0.8826,0l-10.1717,-5.872c-0.2776,-0.164 -0.4414,-0.442 -0.4414,-0.762v-11.752c0,-0.32 0.1638,-0.598 0.4414,-0.762l6.2354,-3.601z" fill="white"/>
</g>
</g>
</g>
<g id="Clip path group_147">
<mask id="mask147_6578_3234" style="mask-type:luminance" maskUnits="userSpaceOnUse" x="60" y="368" width="16" height="16">
<g id="18a870afe3">
<path id="Vector_257" d="M60.2749 368.629H75.3082V383.378H60.2749V368.629Z" fill="white"/>
</g>
</mask>
<g mask="url(#mask147_6578_3234)">
<g id="Group_285">
<path id="Vector_258" d="M59.578,32.629c-4.0288,0 -7.3031,3.275 -7.3031,7.304c0,4.021 3.2743,7.303 7.3031,7.303c4.0217,0 7.3032,-3.282 7.3032,-7.303c0,-4.029 -3.2815,-7.304 -7.3032,-7.304zM59.578,45.819c-3.2529,0 -5.8937,-2.641 -5.8937,-5.886c0,-3.253 2.6408,-5.894 5.8937,-5.894c3.2459,0 5.8867,2.641 5.8867,5.894c0,3.245 -2.6408,5.886 -5.8867,5.886z" fill="#FE9900"/>
</g>
</g>
</g>
<path id="Vector_259" d="M62.3113,39.22h-2.0287v-2.028c0,-0.392 -0.3203,-0.712 -0.7046,-0.712c-0.3915,0 -0.7119,0.32 -0.7119,0.712v2.028h-2.0286c-0.3915,0 -0.7047,0.321 -0.7047,0.712c0,0.385 0.3132,0.705 0.7047,0.705h2.0286v2.029c0,0.391 0.3204,0.711 0.7119,0.711c0.3843,0 0.7046,-0.32 0.7046,-0.711v-2.029h2.0287c0.3915,0 0.7118,-0.32 0.7118,-0.705c0,-0.391 -0.3203,-0.712 -0.7118,-0.712z" fill="#FE9900"/>
<g id="Group_286">
<g id="Clip path group_148">
<mask id="mask148_6578_3234" style="mask-type:luminance" maskUnits="userSpaceOnUse" x="28" y="383" width="13" height="14">
<g id="a1b26e952c">
<path id="Vector_260" d="M40.8 383.378H28.0444V396.133H40.8V383.378Z" fill="white"/>
</g>
</mask>
<g mask="url(#mask148_6578_3234)">
<g id="Group_287">
<g id="Clip path group_149">
<mask id="mask149_6578_3234" style="mask-type:luminance" maskUnits="userSpaceOnUse" x="28" y="385" width="13" height="10">
<g id="805a297f5a">
<path id="Vector_261" d="M28.9912 385.2H40.3659V394.311H28.9912V385.2Z" fill="white"/>
</g>
</mask>
<g mask="url(#mask149_6578_3234)">
<g id="Group_288">
<g id="Group_289">
<g id="Group_290">
<g id="Group_291">
<path id="Vector_262" d="M23.6825,53.601l-0.2847,-0.143l0.1709,-0.74l-0.9396,-0.598l-0.5695,0.484l-0.2847,-0.171l2.1639,-1.708l0.3132,0.199zM23.9103,51.067l-1.0819,0.882l0.7972,0.484l0.3132,-1.338z" fill="#A6A6A6"/>
</g>
</g>
<g id="Group_292">
<g id="Group_293">
<path id="Vector_263" d="M26.2708,52.188c0.1495,0.1 0.2634,0.2 0.3417,0.313c0.0712,0.1 0.0996,0.221 0.0854,0.371c0,0.156 -0.0427,0.299 -0.1139,0.427c-0.0996,0.135 -0.1993,0.227 -0.3132,0.284c-0.1139,0.043 -0.2491,0.057 -0.3986,0.057c-0.1352,0 -0.2776,-0.042 -0.4271,-0.142l-0.5409,-0.342l-0.541,0.883l-0.2563,-0.171l1.3667,-2.192zM25.559,53.27c0.299,0.192 0.5481,0.135 0.7403,-0.171c0.1708,-0.299 0.0996,-0.548 -0.1993,-0.74l-0.5125,-0.313l-0.541,0.911z" fill="#A6A6A6"/>
</g>
</g>
<g id="Group_294">
<g id="Group_295">
<path id="Vector_264" d="M26.1201,55.122l1.3667,-2.192l0.8257,0.512c0.1281,0.1 0.2349,0.192 0.3132,0.285c0.0712,0.1 0.1139,0.199 0.1139,0.313c0,0.114 -0.0427,0.228 -0.1139,0.342c-0.057,0.114 -0.1353,0.192 -0.2278,0.228c-0.0997,0.021 -0.2135,0.028 -0.3417,0.028l-0.0284,0.028c0.1138,0.136 0.1779,0.264 0.1993,0.399c0.0356,0.128 0.0071,0.271 -0.0855,0.427c-0.1352,0.207 -0.2989,0.328 -0.484,0.37c-0.1922,0.036 -0.4128,-0.021 -0.6548,-0.171zM27.743,54.353c0.1282,0.1 0.242,0.136 0.3417,0.114c0.0925,-0.035 0.178,-0.114 0.2563,-0.228c0.0711,-0.113 0.0996,-0.213 0.0854,-0.313c-0.0214,-0.092 -0.0997,-0.185 -0.2278,-0.285l-0.5695,-0.341l-0.4555,0.712zM27.1166,55.435c0.3204,0.207 0.5695,0.171 0.7403,-0.114c0.1709,-0.27 0.0926,-0.498 -0.2278,-0.711l-0.5979,-0.371l-0.5125,0.826z" fill="#A6A6A6"/>
</g>
</g>
<g id="Group_296">
<g id="Group_297">
<path id="Vector_265" d="M29.0997,57.044c-0.1922,-0.114 -0.3346,-0.271 -0.4271,-0.456c-0.0997,-0.171 -0.1353,-0.37 -0.1139,-0.598c0.0142,-0.228 0.0996,-0.463 0.2562,-0.712c0.1495,-0.242 0.3204,-0.427 0.5125,-0.541c0.1851,-0.114 0.3844,-0.156 0.598,-0.142c0.2064,0 0.4057,0.057 0.5979,0.171c0.185,0.114 0.3274,0.256 0.4271,0.427c0.0925,0.171 0.121,0.356 0.0854,0.541h-0.2563v-0.029c0.0143,-0.149 -0.0142,-0.27 -0.0854,-0.37c-0.0569,-0.114 -0.1637,-0.213 -0.3132,-0.313c-0.1352,-0.093 -0.2776,-0.142 -0.4271,-0.142c-0.1352,-0.015 -0.2776,0.021 -0.4271,0.114c-0.1565,0.099 -0.2989,0.249 -0.427,0.455c-0.1353,0.214 -0.2136,0.399 -0.2278,0.57c-0.0214,0.17 0,0.32 0.0569,0.455c0.0712,0.128 0.178,0.242 0.3132,0.342c0.1495,0.092 0.299,0.142 0.4556,0.142c0.1495,0 0.2989,-0.078 0.4555,-0.228l0.0285,0.029l0.1424,0.199c-0.1709,0.15 -0.3702,0.235 -0.5979,0.256c-0.2136,0.015 -0.42,-0.042 -0.6264,-0.17z" fill="#A6A6A6"/>
</g>
</g>
</g>
</g>
</g>
</g>
</g>
</g>
</g>
</g>
</g></svg>