<svg viewBox="0 0 80 80" fill="none" xmlns="http://www.w3.org/2000/svg" xmlns:xlink="http://www.w3.org/1999/xlink" x="0" y="0"><defs><mask id="mask78_6578_3234" style="mask-type:luminance" maskUnits="userSpaceOnUse" x="13" y="16" width="55" height="57">
<g id="c2c5ec8809">
<path id="Vector_121" d="M13.4307,16.201h54.4722v55.952h-54.4722z" fill="white"/>
</g>
</mask><mask id="mask79_6578_3234" style="mask-type:luminance" maskUnits="userSpaceOnUse" x="13" y="16" width="55" height="56">
<g id="e2eb14fb27">
<path id="Vector_122" d="M40.6668,16.201c-15.0417,0 -27.2361,12.493 -27.2361,27.896c0,15.41 12.1944,27.903 27.2361,27.903c15.0416,0 27.2361,-12.493 27.2361,-27.903c0,-15.403 -12.1945,-27.896 -27.2361,-27.896z" fill="white"/>
</g>
</mask><mask id="mask80_6578_3234" style="mask-type:luminance" maskUnits="userSpaceOnUse" x="12" y="16" width="58" height="57">
<g id="dafe9b4a76">
<path id="Vector_123" d="M69.3332,16h-56.8889v56.889h56.8889z" fill="white"/>
</g>
</mask><mask id="mask81_6578_3234" style="mask-type:luminance" maskUnits="userSpaceOnUse" x="13" y="16" width="55" height="57">
<g id="1a0dab8b47">
<path id="Vector_124" d="M13.4307,16.201h54.4722v55.903h-54.4722z" fill="white"/>
</g>
</mask><mask id="mask82_6578_3234" style="mask-type:luminance" maskUnits="userSpaceOnUse" x="13" y="16" width="55" height="56">
<g id="df9a2611e8">
<path id="Vector_125" d="M40.6668,16.201c-15.0417,0 -27.2361,12.493 -27.2361,27.896c0,15.41 12.1944,27.903 27.2361,27.903c15.0416,0 27.2361,-12.493 27.2361,-27.903c0,-15.403 -12.1945,-27.896 -27.2361,-27.896z" fill="white"/>
</g>
</mask><mask id="mask83_6578_3234" style="mask-type:luminance" maskUnits="userSpaceOnUse" x="33" y="37" width="15" height="4">
<g id="70cd107b6b">
<path id="Vector_127" d="M33.7778,37.333h14.2223v3.556h-14.2223z" fill="white"/>
</g>
</mask><mask id="mask84_6578_3234" style="mask-type:luminance" maskUnits="userSpaceOnUse" x="21" y="24" width="40" height="41">
<g id="f389ae8309">
<path id="Vector_128" d="M21.0142,26.757l37.2639,-2.347l2.3472,37.257l-37.257,2.347z" fill="white"/>
</g>
</mask><mask id="mask85_6578_3234" style="mask-type:luminance" maskUnits="userSpaceOnUse" x="21" y="24" width="40" height="41">
<g id="ec1887b1d8">
<path id="Vector_129" d="M21.0142,26.757l37.2639,-2.347l2.3472,37.257l-37.257,2.347z" fill="white"/>
</g>
</mask><mask id="mask86_6578_3234" style="mask-type:luminance" maskUnits="userSpaceOnUse" x="33" y="40" width="17" height="12">
<g id="e4e335a6b7">
<path id="Vector_131" d="M33.7778,40.889h16v10.666h-16z" fill="white"/>
</g>
</mask><mask id="mask87_6578_3234" style="mask-type:luminance" maskUnits="userSpaceOnUse" x="21" y="24" width="40" height="41">
<g id="12cd0a72da">
<path id="Vector_132" d="M21.0142,26.757l37.2639,-2.347l2.3472,37.257l-37.257,2.347z" fill="white"/>
</g>
</mask><mask id="mask88_6578_3234" style="mask-type:luminance" maskUnits="userSpaceOnUse" x="21" y="24" width="40" height="41">
<g id="6e3ac0eb3d">
<path id="Vector_133" d="M21.0142,26.757l37.2639,-2.347l2.3472,37.257l-37.257,2.347z" fill="white"/>
</g>
</mask><mask id="mask89_6578_3234" style="mask-type:luminance" maskUnits="userSpaceOnUse" x="46" y="23" width="13" height="13">
<g id="369b7a5884">
<path id="Vector_135" d="M46.2222,23.111h12.4444v12.445h-12.4444z" fill="white"/>
</g>
</mask><mask id="mask90_6578_3234" style="mask-type:luminance" maskUnits="userSpaceOnUse" x="21" y="24" width="40" height="41">
<g id="47754c5741">
<path id="Vector_136" d="M21.0137,26.757l37.2639,-2.347l2.3472,37.257l-37.257,2.347z" fill="white"/>
</g>
</mask><mask id="mask91_6578_3234" style="mask-type:luminance" maskUnits="userSpaceOnUse" x="21" y="24" width="40" height="41">
<g id="18e52ae071">
<path id="Vector_137" d="M21.0137,26.757l37.2639,-2.347l2.3472,37.257l-37.257,2.347z" fill="white"/>
</g>
</mask><mask id="mask92_6578_3234" style="mask-type:luminance" maskUnits="userSpaceOnUse" x="35" y="37" width="24" height="26">
<g id="5c373320be">
<path id="Vector_139" d="M35.5557,37.333h23.1111v24.889h-23.1111z" fill="white"/>
</g>
</mask><mask id="mask93_6578_3234" style="mask-type:luminance" maskUnits="userSpaceOnUse" x="21" y="24" width="40" height="41">
<g id="6ac87ac9bf">
<path id="Vector_140" d="M21.0142,26.757l37.2639,-2.347l2.3472,37.257l-37.257,2.347z" fill="white"/>
</g>
</mask><mask id="mask94_6578_3234" style="mask-type:luminance" maskUnits="userSpaceOnUse" x="21" y="24" width="40" height="41">
<g id="33e28b7bd5">
<path id="Vector_141" d="M21.0142,26.757l37.2639,-2.347l2.3472,37.257l-37.257,2.347z" fill="white"/>
</g>
</mask><mask id="mask95_6578_3234" style="mask-type:luminance" maskUnits="userSpaceOnUse" x="23" y="24" width="24" height="28">
<g id="6aeea13719">
<path id="Vector_143" d="M23.1113,24.889h23.1111v26.666h-23.1111z" fill="white"/>
</g>
</mask><mask id="mask96_6578_3234" style="mask-type:luminance" maskUnits="userSpaceOnUse" x="21" y="24" width="40" height="41">
<g id="beb8ff4e72">
<path id="Vector_144" d="M21.0142,26.757l37.2639,-2.347l2.3472,37.257l-37.257,2.347z" fill="white"/>
</g>
</mask><mask id="mask97_6578_3234" style="mask-type:luminance" maskUnits="userSpaceOnUse" x="21" y="24" width="40" height="41">
<g id="15a6f9b300">
<path id="Vector_145" d="M21.0142,26.757l37.2639,-2.347l2.3472,37.257l-37.257,2.347z" fill="white"/>
</g>
</mask><mask id="mask98_6578_3234" style="mask-type:luminance" maskUnits="userSpaceOnUse" x="21" y="51" width="13" height="13">
<g id="a41704c3a2">
<path id="Vector_147" d="M21.3335,51.556h12.4444v12.444h-12.4444z" fill="white"/>
</g>
</mask><mask id="mask99_6578_3234" style="mask-type:luminance" maskUnits="userSpaceOnUse" x="21" y="24" width="40" height="41">
<g id="42029ff3b9">
<path id="Vector_148" d="M21.0142,26.757l37.2639,-2.347l2.3472,37.257l-37.257,2.347z" fill="white"/>
</g>
</mask><mask id="mask100_6578_3234" style="mask-type:luminance" maskUnits="userSpaceOnUse" x="21" y="24" width="40" height="41">
<g id="8fe0222fe5">
<path id="Vector_149" d="M21.0142,26.757l37.2639,-2.347l2.3472,37.257l-37.257,2.347z" fill="white"/>
</g>
</mask><mask id="mask101_6578_3234" style="mask-type:luminance" maskUnits="userSpaceOnUse" x="37" y="30" width="7" height="7">
<g id="c2f992299f">
<path id="Vector_151" d="M37.0693,30.132h6.6667v6.667h-6.6667z" fill="white"/>
</g>
</mask><mask id="mask102_6578_3234" style="mask-type:luminance" maskUnits="userSpaceOnUse" x="37" y="30" width="7" height="6">
<g id="3be0d23b66">
<path id="Vector_153" d="M37.3335,30.222h6.4028v5.334h-6.4028z" fill="white"/>
</g>
</mask></defs><g id="transactions 1">
<g id="Clip path group_79">
<mask id="mask78_6578_3234" style="mask-type:luminance" maskUnits="userSpaceOnUse" x="20" y="609" width="55" height="57">
<g id="c2c5ec8809">
<path id="Vector_121" d="M20.4307 609.201H74.9029V665.153H20.4307V609.201Z" fill="white"/>
</g>
</mask>
<g mask="url(#mask78_6578_3234)">
<g id="Group_144">
<g id="Clip path group_80">
<mask id="mask79_6578_3234" style="mask-type:luminance" maskUnits="userSpaceOnUse" x="20" y="609" width="55" height="56">
<g id="e2eb14fb27">
<path id="Vector_122" d="M47.6668 609.201C32.6251 609.201 20.4307 621.694 20.4307 637.097C20.4307 652.507 32.6251 665 47.6668 665C62.7084 665 74.9029 652.507 74.9029 637.097C74.9029 621.694 62.7084 609.201 47.6668 609.201Z" fill="white"/>
</g>
</mask>
<g mask="url(#mask79_6578_3234)">
<g id="Group_145">
<g id="Group_146">
<g id="Clip path group_81">
<mask id="mask80_6578_3234" style="mask-type:luminance" maskUnits="userSpaceOnUse" x="19" y="609" width="58" height="57">
<g id="dafe9b4a76">
<path id="Vector_123" d="M76.3332 609H19.4443V665.889H76.3332V609Z" fill="white"/>
</g>
</mask>
<g mask="url(#mask80_6578_3234)">
<g id="Group_147">
<g id="Clip path group_82">
<mask id="mask81_6578_3234" style="mask-type:luminance" maskUnits="userSpaceOnUse" x="20" y="609" width="55" height="57">
<g id="1a0dab8b47">
<path id="Vector_124" d="M20.4307 609.201H74.9029V665.104H20.4307V609.201Z" fill="white"/>
</g>
</mask>
<g mask="url(#mask81_6578_3234)">
<g id="Group_148">
<g id="Clip path group_83">
<mask id="mask82_6578_3234" style="mask-type:luminance" maskUnits="userSpaceOnUse" x="20" y="609" width="55" height="56">
<g id="df9a2611e8">
<path id="Vector_125" d="M47.6668 609.201C32.6251 609.201 20.4307 621.694 20.4307 637.097C20.4307 652.507 32.6251 665 47.6668 665C62.7084 665 74.9029 652.507 74.9029 637.097C74.9029 621.694 62.7084 609.201 47.6668 609.201Z" fill="white"/>
</g>
</mask>
<g mask="url(#mask82_6578_3234)">
<g id="Group_149">
<path id="Vector_126" d="M13.4307,16.201h54.4722v55.743h-54.4722z" fill="#122F8A"/>
</g>
</g>
</g>
</g>
</g>
</g>
</g>
</g>
</g>
</g>
</g>
</g>
</g>
</g>
</g>
</g>
<g id="Clip path group_84">
<mask id="mask83_6578_3234" style="mask-type:luminance" maskUnits="userSpaceOnUse" x="40" y="630" width="15" height="4">
<g id="70cd107b6b">
<path id="Vector_127" d="M40.7778 630.333H55.0001V633.889H40.7778V630.333Z" fill="white"/>
</g>
</mask>
<g mask="url(#mask83_6578_3234)">
<g id="Group_150">
<g id="Clip path group_85">
<mask id="mask84_6578_3234" style="mask-type:luminance" maskUnits="userSpaceOnUse" x="28" y="617" width="40" height="41">
<g id="f389ae8309">
<path id="Vector_128" d="M28.0142 619.757L65.2781 617.41L67.6253 654.667L30.3683 657.014L28.0142 619.757Z" fill="white"/>
</g>
</mask>
<g mask="url(#mask84_6578_3234)">
<g id="Group_151">
<g id="Clip path group_86">
<mask id="mask85_6578_3234" style="mask-type:luminance" maskUnits="userSpaceOnUse" x="28" y="617" width="40" height="41">
<g id="ec1887b1d8">
<path id="Vector_129" d="M28.0142 619.757L65.2781 617.41L67.6253 654.667L30.3683 657.014L28.0142 619.757Z" fill="white"/>
</g>
</mask>
<g mask="url(#mask85_6578_3234)">
<g id="Group_152">
<path id="Vector_130" d="M46.5904,37.59l-11.2153,0.708c-0.3264,0.021 -0.5972,0.153 -0.8125,0.396c-0.2222,0.243 -0.3195,0.528 -0.2986,0.854l0.0764,1.181l13.5764,-0.854l-0.0764,-1.181c-0.0209,-0.326 -0.1528,-0.597 -0.3959,-0.812c-0.243,-0.215 -0.5347,-0.313 -0.8541,-0.292z" fill="white"/>
</g>
</g>
</g>
</g>
</g>
</g>
</g>
</g>
</g>
<g id="Clip path group_87">
<mask id="mask86_6578_3234" style="mask-type:luminance" maskUnits="userSpaceOnUse" x="40" y="633" width="17" height="12">
<g id="e4e335a6b7">
<path id="Vector_131" d="M40.7778 633.889H56.7778V644.555H40.7778V633.889Z" fill="white"/>
</g>
</mask>
<g mask="url(#mask86_6578_3234)">
<g id="Group_153">
<g id="Clip path group_88">
<mask id="mask87_6578_3234" style="mask-type:luminance" maskUnits="userSpaceOnUse" x="28" y="617" width="40" height="41">
<g id="12cd0a72da">
<path id="Vector_132" d="M28.0142 619.757L65.2781 617.41L67.6253 654.667L30.3683 657.014L28.0142 619.757Z" fill="white"/>
</g>
</mask>
<g mask="url(#mask87_6578_3234)">
<g id="Group_154">
<g id="Clip path group_89">
<mask id="mask88_6578_3234" style="mask-type:luminance" maskUnits="userSpaceOnUse" x="28" y="617" width="40" height="41">
<g id="6e3ac0eb3d">
<path id="Vector_133" d="M28.0142 619.757L65.2781 617.41L67.6253 654.667L30.3683 657.014L28.0142 619.757Z" fill="white"/>
</g>
</mask>
<g mask="url(#mask88_6578_3234)">
<g id="Group_155">
<path id="Vector_134" d="M36.1531,50.688l11.2153,-0.702c0.3264,-0.021 0.5972,-0.153 0.8125,-0.403c0.2153,-0.243 0.3125,-0.527 0.2916,-0.854l-0.4791,-7.673l-13.5764,0.854l0.4861,7.673c0.0139,0.327 0.1528,0.598 0.3958,0.813c0.2431,0.215 0.5278,0.312 0.8542,0.292zM45.1114,42.424l1.1806,-0.077l0.0764,1.181l-1.1806,0.076zM45.2642,44.785l1.1806,-0.077l0.0764,1.181l-1.1806,0.076zM42.16,42.611l1.1806,-0.076l0.0764,1.18l-1.1806,0.077zM42.3128,44.972l1.1806,-0.076l0.0764,1.18l-1.1806,0.077zM42.4587,47.333l1.1805,-0.076l0.0764,1.181l-1.1806,0.076zM39.2087,42.792l1.1805,-0.07l0.0764,1.181l-1.1806,0.069zM39.3614,45.153l1.1806,-0.07l0.0764,1.181l-1.1806,0.069zM39.5073,47.514l1.1805,-0.069l0.0764,1.18l-1.1805,0.07zM36.41,45.34l1.1806,-0.076l0.0764,1.181l-1.1806,0.076zM36.5559,47.701l1.1805,-0.076l0.0764,1.181l-1.1805,0.076z" fill="white"/>
</g>
</g>
</g>
</g>
</g>
</g>
</g>
</g>
</g>
<g id="Clip path group_90">
<mask id="mask89_6578_3234" style="mask-type:luminance" maskUnits="userSpaceOnUse" x="53" y="616" width="13" height="13">
<g id="369b7a5884">
<path id="Vector_135" d="M53.2222 616.111H65.6666V628.556H53.2222V616.111Z" fill="white"/>
</g>
</mask>
<g mask="url(#mask89_6578_3234)">
<g id="Group_156">
<g id="Clip path group_91">
<mask id="mask90_6578_3234" style="mask-type:luminance" maskUnits="userSpaceOnUse" x="28" y="617" width="40" height="41">
<g id="47754c5741">
<path id="Vector_136" d="M28.0137 619.757L65.2776 617.41L67.6248 654.667L30.3678 657.014L28.0137 619.757Z" fill="white"/>
</g>
</mask>
<g mask="url(#mask90_6578_3234)">
<g id="Group_157">
<g id="Clip path group_92">
<mask id="mask91_6578_3234" style="mask-type:luminance" maskUnits="userSpaceOnUse" x="28" y="617" width="40" height="41">
<g id="18e52ae071">
<path id="Vector_137" d="M28.0137 619.757L65.2776 617.41L67.6248 654.667L30.3678 657.014L28.0137 619.757Z" fill="white"/>
</g>
</mask>
<g mask="url(#mask91_6578_3234)">
<g id="Group_158">
<path id="Vector_138" d="M52.2986,24.785c-0.7084,0.042 -1.375,0.222 -2.007,0.535c-0.6319,0.306 -1.1875,0.729 -1.6527,1.257c-0.4653,0.528 -0.8125,1.132 -1.0417,1.799c-0.2292,0.666 -0.3195,1.354 -0.2778,2.055c0.0486,0.708 0.2222,1.375 0.5347,2.007c0.3125,0.632 0.7292,1.188 1.257,1.653c0.5347,0.465 1.1319,0.812 1.7986,1.041c0.6667,0.23 1.3542,0.32 2.0555,0.278c0.7084,-0.048 1.375,-0.222 2.007,-0.534c0.6389,-0.313 1.1875,-0.73 1.6528,-1.257c0.4652,-0.535 0.8125,-1.132 1.0416,-1.799c0.2292,-0.667 0.3195,-1.354 0.2778,-2.056c-0.0417,-0.708 -0.2222,-1.375 -0.5347,-2.007c-0.3056,-0.638 -0.7292,-1.187 -1.257,-1.652c-0.5277,-0.466 -1.1319,-0.813 -1.7986,-1.042c-0.6666,-0.229 -1.3541,-0.319 -2.0555,-0.278zM52.1389,32.223c-0.1112,0.125 -0.2431,0.187 -0.4098,0.201c-0.1597,0.007 -0.3055,-0.042 -0.4236,-0.146l-1.3333,-1.173l0.7847,-0.889l0.882,0.785l2.743,-3.112l0.8889,0.785z" fill="white"/>
</g>
</g>
</g>
</g>
</g>
</g>
</g>
</g>
</g>
<g id="Clip path group_93">
<mask id="mask92_6578_3234" style="mask-type:luminance" maskUnits="userSpaceOnUse" x="42" y="630" width="24" height="26">
<g id="5c373320be">
<path id="Vector_139" d="M42.5557 630.333H65.6668V655.222H42.5557V630.333Z" fill="white"/>
</g>
</mask>
<g mask="url(#mask92_6578_3234)">
<g id="Group_159">
<g id="Clip path group_94">
<mask id="mask93_6578_3234" style="mask-type:luminance" maskUnits="userSpaceOnUse" x="28" y="617" width="40" height="41">
<g id="6ac87ac9bf">
<path id="Vector_140" d="M28.0142 619.757L65.2781 617.41L67.6253 654.667L30.3683 657.014L28.0142 619.757Z" fill="white"/>
</g>
</mask>
<g mask="url(#mask93_6578_3234)">
<g id="Group_160">
<g id="Clip path group_95">
<mask id="mask94_6578_3234" style="mask-type:luminance" maskUnits="userSpaceOnUse" x="28" y="617" width="40" height="41">
<g id="33e28b7bd5">
<path id="Vector_141" d="M28.0142 619.757L65.2781 617.41L67.6253 654.667L30.3683 657.014L28.0142 619.757Z" fill="white"/>
</g>
</mask>
<g mask="url(#mask94_6578_3234)">
<g id="Group_161">
<path id="Vector_142" d="M41.4377,59.243c-0.4861,0.035 -0.9792,0.035 -1.4861,0.021l-0.0903,-1.458l-3.4028,2.347l3.6736,1.903l-0.1042,-1.612c0.5,0.014 1,0.014 1.4792,-0.02c0.6597,-0.042 1.3125,-0.118 1.9653,-0.237c0.6458,-0.125 1.2847,-0.284 1.9167,-0.479c0.6319,-0.194 1.243,-0.43 1.8472,-0.701c0.6041,-0.264 1.1875,-0.57 1.75,-0.91c0.5694,-0.34 1.1111,-0.715 1.6319,-1.118c0.5209,-0.403 1.0139,-0.84 1.4861,-1.305c0.4723,-0.459 0.9098,-0.952 1.3195,-1.466c0.4097,-0.521 0.7916,-1.055 1.1389,-1.618c0.3402,-0.562 0.6527,-1.146 0.9305,-1.743c0.2778,-0.597 0.5209,-1.208 0.7222,-1.84c0.2014,-0.625 0.3681,-1.264 0.5,-1.91c0.125,-0.646 0.2153,-1.298 0.2639,-1.958c0.0486,-0.66 0.0556,-1.32 0.0278,-1.979c-0.0278,-0.66 -0.0972,-1.313 -0.2014,-1.966c-0.1111,-0.652 -0.2569,-1.291 -0.4375,-1.923c-0.1875,-0.632 -0.4097,-1.257 -0.6666,-1.861l-1.0903,0.465c0.243,0.562 0.4514,1.139 0.618,1.729c0.1736,0.583 0.3056,1.181 0.4098,1.785c0.0972,0.604 0.1597,1.215 0.1875,1.826c0.0277,0.611 0.0208,1.222 -0.0278,1.834c-0.0486,0.611 -0.132,1.215 -0.25,1.819c-0.1181,0.604 -0.2709,1.194 -0.4584,1.778c-0.1875,0.583 -0.4097,1.153 -0.6666,1.708c-0.2639,0.556 -0.5486,1.09 -0.875,1.611c-0.3195,0.528 -0.6667,1.028 -1.0486,1.507c-0.382,0.479 -0.7917,0.931 -1.2292,1.361c-0.4375,0.431 -0.8958,0.834 -1.375,1.209c-0.4861,0.382 -0.9931,0.722 -1.5139,1.041c-0.5278,0.313 -1.0694,0.598 -1.6319,0.848c-0.5556,0.25 -1.132,0.465 -1.7153,0.652c-0.5833,0.181 -1.1736,0.327 -1.7778,0.438c-0.6042,0.111 -1.2083,0.187 -1.8194,0.222z" fill="white"/>
</g>
</g>
</g>
</g>
</g>
</g>
</g>
</g>
</g>
<g id="Clip path group_96">
<mask id="mask95_6578_3234" style="mask-type:luminance" maskUnits="userSpaceOnUse" x="30" y="617" width="24" height="28">
<g id="6aeea13719">
<path id="Vector_143" d="M30.1113 617.889H53.2224V644.555H30.1113V617.889Z" fill="white"/>
</g>
</mask>
<g mask="url(#mask95_6578_3234)">
<g id="Group_162">
<g id="Clip path group_97">
<mask id="mask96_6578_3234" style="mask-type:luminance" maskUnits="userSpaceOnUse" x="28" y="617" width="40" height="41">
<g id="beb8ff4e72">
<path id="Vector_144" d="M28.0142 619.757L65.2781 617.41L67.6253 654.667L30.3683 657.014L28.0142 619.757Z" fill="white"/>
</g>
</mask>
<g mask="url(#mask96_6578_3234)">
<g id="Group_163">
<g id="Clip path group_98">
<mask id="mask97_6578_3234" style="mask-type:luminance" maskUnits="userSpaceOnUse" x="28" y="617" width="40" height="41">
<g id="15a6f9b300">
<path id="Vector_145" d="M28.0142 619.757L65.2781 617.41L67.6253 654.667L30.3683 657.014L28.0142 619.757Z" fill="white"/>
</g>
</mask>
<g mask="url(#mask97_6578_3234)">
<g id="Group_164">
<path id="Vector_146" d="M39.5002,28.556c0.4722,-0.028 0.9653,-0.035 1.4792,-0.021l0.0903,1.458l3.4097,-2.347l-3.6736,-1.896l0.0972,1.604c-0.507,-0.014 -1,-0.007 -1.4792,0.021c-0.6597,0.042 -1.3125,0.125 -1.9583,0.243c-0.6528,0.118 -1.2917,0.278 -1.9236,0.472c-0.625,0.195 -1.2431,0.431 -1.8472,0.702c-0.5973,0.271 -1.1806,0.576 -1.75,0.916c-0.5625,0.341 -1.1112,0.709 -1.632,1.111c-0.5208,0.41 -1.0139,0.841 -1.4861,1.306c-0.4653,0.465 -0.9097,0.951 -1.3194,1.472c-0.4098,0.514 -0.7848,1.056 -1.132,1.618c-0.3472,0.556 -0.6597,1.139 -0.9375,1.736c-0.2778,0.605 -0.5139,1.216 -0.7222,1.841c-0.2014,0.632 -0.3681,1.264 -0.4931,1.916c-0.125,0.646 -0.2152,1.299 -0.2639,1.959c-0.0486,0.652 -0.0625,1.312 -0.0347,1.972c0.0278,0.66 0.0972,1.312 0.2084,1.965c0.1041,0.653 0.25,1.292 0.4375,1.931c0.1805,0.632 0.4027,1.25 0.6597,1.861l1.0903,-0.465c-0.2431,-0.57 -0.4445,-1.146 -0.6181,-1.73c-0.1667,-0.59 -0.3056,-1.187 -0.4028,-1.791c-0.1041,-0.604 -0.1666,-1.216 -0.1944,-1.827c-0.0209,-0.611 -0.0139,-1.222 0.0347,-1.833c0.0417,-0.611 0.125,-1.215 0.2431,-1.819c0.118,-0.598 0.2708,-1.188 0.4583,-1.771c0.1944,-0.584 0.4167,-1.153 0.6736,-1.709c0.2569,-0.555 0.5486,-1.097 0.8681,-1.618c0.3194,-0.521 0.6736,-1.021 1.0555,-1.5c0.382,-0.479 0.7847,-0.937 1.2222,-1.368c0.4375,-0.43 0.8959,-0.833 1.382,-1.208c0.4861,-0.375 0.9861,-0.722 1.5139,-1.035c0.5208,-0.319 1.0694,-0.604 1.625,-0.854c0.5625,-0.25 1.1319,-0.465 1.7152,-0.646c0.5834,-0.18 1.1806,-0.333 1.7848,-0.444c0.5972,-0.111 1.2083,-0.188 1.8194,-0.222z" fill="white"/>
</g>
</g>
</g>
</g>
</g>
</g>
</g>
</g>
</g>
<g id="Clip path group_99">
<mask id="mask98_6578_3234" style="mask-type:luminance" maskUnits="userSpaceOnUse" x="28" y="644" width="13" height="13">
<g id="a41704c3a2">
<path id="Vector_147" d="M28.3335 644.556H40.7779V657H28.3335V644.556Z" fill="white"/>
</g>
</mask>
<g mask="url(#mask98_6578_3234)">
<g id="Group_165">
<g id="Clip path group_100">
<mask id="mask99_6578_3234" style="mask-type:luminance" maskUnits="userSpaceOnUse" x="28" y="617" width="40" height="41">
<g id="42029ff3b9">
<path id="Vector_148" d="M28.0142 619.757L65.2781 617.41L67.6253 654.667L30.3683 657.014L28.0142 619.757Z" fill="white"/>
</g>
</mask>
<g mask="url(#mask99_6578_3234)">
<g id="Group_166">
<g id="Clip path group_101">
<mask id="mask100_6578_3234" style="mask-type:luminance" maskUnits="userSpaceOnUse" x="28" y="617" width="40" height="41">
<g id="8fe0222fe5">
<path id="Vector_149" d="M28.0142 619.757L65.2781 617.41L67.6253 654.667L30.3683 657.014L28.0142 619.757Z" fill="white"/>
</g>
</mask>
<g mask="url(#mask100_6578_3234)">
<g id="Group_167">
<path id="Vector_150" d="M28.6392,63.014c0.7014,-0.042 1.368,-0.223 2.0069,-0.528c0.632,-0.313 1.1806,-0.736 1.6459,-1.264c0.4722,-0.528 0.8194,-1.125 1.0416,-1.792c0.2292,-0.673 0.3264,-1.354 0.2778,-2.062c-0.0417,-0.702 -0.2222,-1.375 -0.5278,-2.007c-0.3125,-0.632 -0.7361,-1.181 -1.2639,-1.653c-0.5277,-0.465 -1.125,-0.812 -1.7986,-1.042c-0.6666,-0.229 -1.3541,-0.319 -2.0555,-0.27c-0.7014,0.041 -1.375,0.215 -2.007,0.527c-0.6319,0.313 -1.1805,0.73 -1.6528,1.264c-0.4652,0.528 -0.8125,1.125 -1.0416,1.792c-0.2292,0.667 -0.3195,1.354 -0.2778,2.062c0.0486,0.702 0.2292,1.368 0.5347,2.007c0.3125,0.632 0.7361,1.181 1.2639,1.646c0.5278,0.465 1.125,0.813 1.7917,1.042c0.6666,0.229 1.3541,0.326 2.0625,0.278zM28.7781,58.264l-0.882,0.055c-0.243,0.028 -0.4861,0.007 -0.7153,-0.062c-0.2361,-0.077 -0.4513,-0.188 -0.6388,-0.341c-0.1945,-0.152 -0.3473,-0.34 -0.4653,-0.555c-0.1111,-0.215 -0.1875,-0.445 -0.2084,-0.688c-0.0138,-0.479 0.1389,-0.902 0.4584,-1.264c0.3194,-0.354 0.7222,-0.562 1.2014,-0.604l-0.0417,-0.604l1.1806,-0.076l0.0416,0.604c0.4792,-0.014 0.9028,0.139 1.2639,0.451c0.3611,0.32 0.5625,0.716 0.6181,1.195l-1.1806,0.076c-0.0347,-0.18 -0.1319,-0.326 -0.2778,-0.43c-0.1527,-0.105 -0.3194,-0.146 -0.5,-0.118l-0.8889,0.055c-0.1875,-0.028 -0.3541,0.021 -0.5,0.153c-0.1458,0.132 -0.2083,0.292 -0.1944,0.486c0.0069,0.194 0.0972,0.347 0.2569,0.458c0.1528,0.111 0.3264,0.139 0.5139,0.084l0.8889,-0.056c0.2431,-0.021 0.4792,0 0.7153,0.07c0.2361,0.069 0.4444,0.187 0.6389,0.34c0.1875,0.153 0.3403,0.34 0.4583,0.555c0.1181,0.216 0.1875,0.445 0.2153,0.688c0.0139,0.479 -0.1458,0.903 -0.4653,1.264c-0.3194,0.354 -0.7153,0.562 -1.1944,0.604l0.0347,0.604l-1.1806,0.076l-0.0347,-0.604c-0.4791,0.014 -0.9028,-0.139 -1.2639,-0.451c-0.3611,-0.32 -0.5694,-0.715 -0.618,-1.195l1.1805,-0.076c0.0348,0.181 0.132,0.32 0.2778,0.431c0.1528,0.104 0.3195,0.139 0.5,0.111l0.882,-0.056c0.1944,0.035 0.3611,-0.014 0.5069,-0.146c0.1389,-0.132 0.2083,-0.291 0.1944,-0.486c-0.0138,-0.194 -0.0972,-0.347 -0.2569,-0.458c-0.1597,-0.111 -0.3333,-0.139 -0.5208,-0.09z" fill="white"/>
</g>
</g>
</g>
</g>
</g>
</g>
</g>
</g>
</g>
<g id="Clip path group_102">
<mask id="mask101_6578_3234" style="mask-type:luminance" maskUnits="userSpaceOnUse" x="44" y="623" width="7" height="7">
<g id="c2f992299f">
<path id="Vector_151" d="M44.0693 623.132H50.736V629.799H44.0693V623.132Z" fill="white"/>
</g>
</mask>
<g mask="url(#mask101_6578_3234)">
<g id="Group_168">
<path id="Vector_152" d="M40.6596,37.319c-1.9792,0 -3.5903,-1.611 -3.5903,-3.59c0,-1.986 1.6111,-3.597 3.5903,-3.597c1.9792,0 3.5972,1.611 3.5972,3.597c0,1.979 -1.618,3.59 -3.5972,3.59zM40.6596,30.43c-1.8125,0 -3.2917,1.48 -3.2917,3.299c0,1.813 1.4792,3.292 3.2917,3.292c1.8195,0 3.2917,-1.479 3.2917,-3.292c0,-1.819 -1.4722,-3.299 -3.2917,-3.299z" fill="#FE9900"/>
</g>
</g>
</g>
<g id="Clip path group_103">
<mask id="mask102_6578_3234" style="mask-type:luminance" maskUnits="userSpaceOnUse" x="44" y="623" width="7" height="6">
<g id="3be0d23b66">
<path id="Vector_153" d="M44.3335 623.222H50.7363V628.556H44.3335V623.222Z" fill="white"/>
</g>
</mask>
<g mask="url(#mask102_6578_3234)">
<g id="Group_169">
<path id="Vector_154" d="M42.271,35.222h-3.2152c-0.0764,0 -0.1389,-0.048 -0.1528,-0.125l-0.3333,-1.993c-0.0139,-0.055 0.0069,-0.111 0.0555,-0.146c0.0417,-0.034 0.1042,-0.041 0.1528,-0.014l0.9722,0.48l0.7778,-1.417c0.0555,-0.097 0.2083,-0.097 0.2639,0l0.7778,1.417l0.9722,-0.48c0.0486,-0.027 0.1111,-0.02 0.1528,0.014c0.0486,0.035 0.0694,0.091 0.0625,0.146l-0.3403,1.993c-0.0139,0.077 -0.0764,0.125 -0.1459,0.125zM39.1808,34.924h2.9583l0.2708,-1.584l-0.8333,0.417c-0.0764,0.035 -0.1597,0.007 -0.2014,-0.063l-0.7153,-1.305l-0.7152,1.305c-0.0348,0.07 -0.125,0.098 -0.1945,0.063l-0.8403,-0.417z" fill="#FE9900"/>
</g>
</g>
</g>
</g></svg>